<svg version="1.1" viewBox="0.0 0.0 960.0 540.0" fill="none" stroke="none" stroke-linecap="square" stroke-miterlimit="10" xmlns:xlink="http://www.w3.org/1999/xlink" xmlns="http://www.w3.org/2000/svg"><clipPath id="g77512ee68d_0_39.0"><path d="m0 0l960.0 0l0 540.0l-960.0 0l0 -540.0z" clip-rule="nonzero"/></clipPath><g clip-path="url(#g77512ee68d_0_39.0)"><path fill="#ffffff" d="m0 0l960.0 0l0 540.0l-960.0 0z" fill-rule="evenodd"/><g filter="url(#shadowFilter-g77512ee68d_0_39.1)"><use xlink:href="#g77512ee68d_0_39.1" transform="matrix(1.0 0.0 0.0 1.0 0.0 2.0)"/></g><defs><filter id="shadowFilter-g77512ee68d_0_39.1" filterUnits="userSpaceOnUse"><feGaussianBlur in="SourceAlpha" stdDeviation="12.0" result="blur"/><feComponentTransfer in="blur" color-interpolation-filters="sRGB"><feFuncR type="linear" slope="0" intercept="0.0"/><feFuncG type="linear" slope="0" intercept="0.0"/><feFuncB type="linear" slope="0" intercept="0.0"/><feFuncA type="linear" slope="0.15" intercept="0"/></feComponentTransfer></filter></defs><g id="g77512ee68d_0_39.1"><path fill="#ffffff" d="m785.29395 55.283466l0 146.4252l-632.31494 0l0 -146.4252z" fill-rule="evenodd"/><path stroke="#1eb182" stroke-width="1.0" stroke-linejoin="round" stroke-linecap="butt" stroke-dasharray="1.0,3.0" d="m785.29395 55.283466l0 146.4252l-632.31494 0l0 -146.4252z" fill-rule="evenodd"/></g><g filter="url(#shadowFilter-g77512ee68d_0_39.2)"><use xlink:href="#g77512ee68d_0_39.2" transform="matrix(1.0 0.0 0.0 1.0 0.0 2.0)"/></g><defs><filter id="shadowFilter-g77512ee68d_0_39.2" filterUnits="userSpaceOnUse"><feGaussianBlur in="SourceAlpha" stdDeviation="12.0" result="blur"/><feComponentTransfer in="blur" color-interpolation-filters="sRGB"><feFuncR type="linear" slope="0" intercept="0.0"/><feFuncG type="linear" slope="0" intercept="0.0"/><feFuncB type="linear" slope="0" intercept="0.0"/><feFuncA type="linear" slope="0.15" intercept="0"/></feComponentTransfer></filter></defs><g id="g77512ee68d_0_39.2"><path fill="#ffffff" d="m898.1496 325.98682l0 178.07874l-858.01575 0l0 -178.07874z" fill-rule="evenodd"/><path stroke="#1eb182" stroke-width="1.0" stroke-linejoin="round" stroke-linecap="butt" stroke-dasharray="1.0,3.0" d="m898.1496 325.98682l0 178.07874l-858.01575 0l0 -178.07874z" fill-rule="evenodd"/></g><g filter="url(#shadowFilter-g77512ee68d_0_39.3)"><use xlink:href="#g77512ee68d_0_39.3" transform="matrix(1.0 0.0 0.0 1.0 0.0 2.0)"/></g><defs><filter id="shadowFilter-g77512ee68d_0_39.3" filterUnits="userSpaceOnUse"><feGaussianBlur in="SourceAlpha" stdDeviation="7.0" result="blur"/><feComponentTransfer in="blur" color-interpolation-filters="sRGB"><feFuncR type="linear" slope="0" intercept="0.0"/><feFuncG type="linear" slope="0" intercept="0.0"/><feFuncB type="linear" slope="0" intercept="0.0"/><feFuncA type="linear" slope="0.33" intercept="0"/></feComponentTransfer></filter></defs><g id="g77512ee68d_0_39.3"><path fill="#1eb182" d="m294.1719 102.875114l116.6929 0l0 47.874016l-116.6929 0z" fill-rule="evenodd"/><path stroke="#1eb182" stroke-width="4.0" stroke-linejoin="round" stroke-linecap="butt" d="m294.1719 102.875114l116.6929 0l0 47.874016l-116.6929 0z" fill-rule="evenodd"/></g><path fill="#ffffff" d="m294.1719 101.62477c0 -5.6185226 26.12259 -10.173233 58.346466 -10.173233l0 0c32.223846 0 58.346436 4.5547104 58.346436 10.173233l0 0c0 5.618515 -26.12259 10.173225 -58.346436 10.173225l0 0c-32.223877 0 -58.346466 -4.5547104 -58.346466 -10.173225z" fill-rule="evenodd"/><path stroke="#1eb182" stroke-width="4.0" stroke-linejoin="round" stroke-linecap="butt" d="m294.1719 101.62477c0 -5.6185226 26.12259 -10.173233 58.346466 -10.173233l0 0c32.223846 0 58.346436 4.5547104 58.346436 10.173233l0 0c0 5.618515 -26.12259 10.173225 -58.346436 10.173225l0 0c-32.223877 0 -58.346466 -4.5547104 -58.346466 -10.173225z" fill-rule="evenodd"/><path fill="#1eb182" d="m294.1719 151.08937c0 -5.6185303 26.12259 -10.173233 58.346466 -10.173233l0 0c32.223846 0 58.346436 4.5547028 58.346436 10.173233l0 0c0 5.618515 -26.12259 10.173218 -58.346436 10.173218l0 0c-32.223877 0 -58.346466 -4.5547028 -58.346466 -10.173218z" fill-rule="evenodd"/><path stroke="#1eb182" stroke-width="4.0" stroke-linejoin="round" stroke-linecap="butt" d="m294.1719 151.08937c0 -5.6185303 26.12259 -10.173233 58.346466 -10.173233l0 0c32.223846 0 58.346436 4.5547028 58.346436 10.173233l0 0c0 5.618515 -26.12259 10.173218 -58.346436 10.173218l0 0c-32.223877 0 -58.346466 -4.5547028 -58.346466 -10.173218z" fill-rule="evenodd"/><path fill="#000000" fill-opacity="0.0" d="m281.6417 119.23284l141.7638 0l0 30.488182l-141.7638 0z" fill-rule="evenodd"/><path fill="#ffffff" d="m349.8738 132.10506q0.984375 0.015625 1.59375 0.78125l0.6875 -3.609375l1.84375 0l-1.734375 10.0l-1.640625 0l0.09375 -0.75q-0.78125 0.90625 -1.828125 0.890625q-0.65625 -0.015625 -1.15625 -0.34375q-0.484375 -0.34375 -0.765625 -0.96875q-0.265625 -0.640625 -0.296875 -1.421875q-0.015625 -0.40625 0.03125 -0.796875l0.03125 -0.296875q0.15625 -1.078125 0.59375 -1.890625q0.453125 -0.828125 1.09375 -1.21875q0.65625 -0.40625 1.453125 -0.375zm-1.328125 3.78125q-0.0625 0.5 -0.046875 0.828125q0.078125 1.15625 0.9375 1.171875q0.765625 0.03125 1.34375 -0.734375l0.5 -2.796875q-0.25 -0.6875 -1.015625 -0.734375q-0.671875 -0.015625 -1.125 0.53125q-0.4375 0.53125 -0.59375 1.734375z" fill-rule="nonzero"/><path fill="#ffffff" d="m356.62744 144.27693l-1.21875 0l0.828125 -4.796875l-1.53125 0.453125l0.1875 -1.0625l2.640625 -0.90625l0.15625 -0.015625l-1.0625 6.328125z" fill-rule="nonzero"/><g filter="url(#shadowFilter-g77512ee68d_0_39.4)"><use xlink:href="#g77512ee68d_0_39.4" transform="matrix(1.0 0.0 0.0 1.0 0.0 2.0)"/></g><defs><filter id="shadowFilter-g77512ee68d_0_39.4" filterUnits="userSpaceOnUse"><feGaussianBlur in="SourceAlpha" stdDeviation="7.0" result="blur"/><feComponentTransfer in="blur" color-interpolation-filters="sRGB"><feFuncR type="linear" slope="0" intercept="0.0"/><feFuncG type="linear" slope="0" intercept="0.0"/><feFuncB type="linear" slope="0" intercept="0.0"/><feFuncA type="linear" slope="0.33" intercept="0"/></feComponentTransfer></filter></defs><g id="g77512ee68d_0_39.4"><path fill="#1eb182" d="m556.98553 110.99585l116.69293 0l0 47.874023l-116.69293 0z" fill-rule="evenodd"/><path stroke="#1eb182" stroke-width="4.0" stroke-linejoin="round" stroke-linecap="butt" d="m556.98553 110.99585l116.69293 0l0 47.874023l-116.69293 0z" fill-rule="evenodd"/></g><path fill="#ffffff" d="m556.98553 109.74551c0 -5.6185226 26.12262 -10.173233 58.346497 -10.173233l0 0c32.223816 0 58.346436 4.5547104 58.346436 10.173233l0 0c0 5.618515 -26.12262 10.173225 -58.346436 10.173225l0 0c-32.223877 0 -58.346497 -4.5547104 -58.346497 -10.173225z" fill-rule="evenodd"/><path stroke="#1eb182" stroke-width="4.0" stroke-linejoin="round" stroke-linecap="butt" d="m556.98553 109.74551c0 -5.6185226 26.12262 -10.173233 58.346497 -10.173233l0 0c32.223816 0 58.346436 4.5547104 58.346436 10.173233l0 0c0 5.618515 -26.12262 10.173225 -58.346436 10.173225l0 0c-32.223877 0 -58.346497 -4.5547104 -58.346497 -10.173225z" fill-rule="evenodd"/><path fill="#1eb182" d="m556.98553 159.2101c0 -5.618515 26.12262 -10.173218 58.346497 -10.173218l0 0c32.223816 0 58.346436 4.5547028 58.346436 10.173218l0 0c0 5.618515 -26.12262 10.173233 -58.346436 10.173233l0 0c-32.223877 0 -58.346497 -4.554718 -58.346497 -10.173233z" fill-rule="evenodd"/><path stroke="#1eb182" stroke-width="4.0" stroke-linejoin="round" stroke-linecap="butt" d="m556.98553 159.2101c0 -5.618515 26.12262 -10.173218 58.346497 -10.173218l0 0c32.223816 0 58.346436 4.5547028 58.346436 10.173218l0 0c0 5.618515 -26.12262 10.173233 -58.346436 10.173233l0 0c-32.223877 0 -58.346497 -4.554718 -58.346497 -10.173233z" fill-rule="evenodd"/><path fill="#000000" fill-opacity="0.0" d="m546.626 127.35357l141.76373 0l0 30.488197l-141.76373 0z" fill-rule="evenodd"/><path fill="#ffffff" d="m614.85803 140.22578q0.984375 0.015625 1.59375 0.78125l0.6875 -3.609375l1.84375 0l-1.734375 10.0l-1.640625 0l0.09375 -0.75q-0.78125 0.90625 -1.828125 0.890625q-0.65625 -0.015625 -1.15625 -0.34375q-0.484375 -0.34375 -0.765625 -0.96875q-0.265625 -0.640625 -0.296875 -1.421875q-0.015625 -0.40625 0.03125 -0.796875l0.03125 -0.296875q0.15625 -1.078125 0.59375 -1.890625q0.453125 -0.828125 1.09375 -1.21875q0.65625 -0.40625 1.453125 -0.375zm-1.328125 3.78125q-0.0625 0.5 -0.046875 0.828125q0.078125 1.15625 0.9375 1.171875q0.765625 0.03125 1.34375 -0.734375l0.5 -2.796875q-0.25 -0.6875 -1.015625 -0.734375q-0.671875 -0.015625 -1.125 0.53125q-0.4375 0.53125 -0.59375 1.734375z" fill-rule="nonzero"/><path fill="#ffffff" d="m622.89294 152.39766l-4.203125 0l0.140625 -0.90625l2.25 -2.109375q0.6875 -0.640625 0.90625 -1.046875q0.234375 -0.40625 0.171875 -0.78125q-0.09375 -0.546875 -0.625 -0.5625q-0.40625 0 -0.6875 0.296875q-0.28125 0.296875 -0.34375 0.78125l-1.21875 0q0.03125 -0.578125 0.34375 -1.0625q0.328125 -0.484375 0.84375 -0.75q0.53125 -0.265625 1.140625 -0.265625q0.890625 0.015625 1.375 0.5q0.484375 0.46875 0.4375 1.265625q-0.078125 0.890625 -1.0625 1.859375l-0.625 0.59375l-1.28125 1.171875l2.609375 0l-0.171875 1.015625z" fill-rule="nonzero"/><path fill="#000000" fill-opacity="0.0" d="m156.44879 60.963516l130.92914 0l0 30.48819l-130.92914 0z" fill-rule="evenodd"/><path fill="#3d3c3c" d="m173.43317 65.11698l-2.90625 0l0 7.890625l-1.953125 0l0 -7.890625l-2.859375 0l0 -1.5781212l7.71875 0l0 1.5781212zm4.5098114 2.609375q-0.375 -0.046875 -0.671875 -0.046875q-1.0625 0 -1.390625 0.71875l0 4.609375l-1.890625 0l0 -7.046875l1.78125 0l0.046875 0.84375q0.578125 -0.96875 1.578125 -0.96875q0.3125 0 0.578125 0.078125l-0.03125 1.8125zm4.7910767 5.28125q-0.125 -0.25 -0.1875 -0.625q-0.671875 0.75 -1.765625 0.75q-1.046875 0 -1.734375 -0.59375q-0.671875 -0.59375 -0.671875 -1.515625q0 -1.109375 0.828125 -1.703125q0.84375 -0.609375 2.40625 -0.609375l0.859375 0l0 -0.40625q0 -0.484375 -0.25 -0.78125q-0.25 -0.296875 -0.78125 -0.296875q-0.484375 0 -0.75 0.234375q-0.265625 0.21875 -0.265625 0.625l-1.890625 0q0 -0.609375 0.375 -1.125q0.390625 -0.53125 1.078125 -0.828125q0.6875 -0.296875 1.546875 -0.296875q1.296875 0 2.0625 0.65625q0.765625 0.65625 0.765625 1.84375l0 3.046875q0.015625 1.0 0.28125 1.515625l0 0.109375l-1.90625 0zm-1.546875 -1.3125q0.40625 0 0.75 -0.171875q0.359375 -0.1875 0.53125 -0.5l0 -1.21875l-0.703125 0q-1.40625 0 -1.5 0.984375l0 0.109375q0 0.34375 0.234375 0.578125q0.25 0.21875 0.6875 0.21875zm6.59877 1.3125l-1.890625 0l0 -7.046875l1.890625 0l0 7.046875zm-2.0 -8.859375q0 -0.4218712 0.28125 -0.6874962q0.296875 -0.28125 0.78125 -0.28125q0.484375 0 0.765625 0.28125q0.28125 0.265625 0.28125 0.6874962q0 0.421875 -0.296875 0.703125q-0.28125 0.265625 -0.765625 0.265625q-0.46875 0 -0.765625 -0.265625q-0.28125 -0.28125 -0.28125 -0.703125zm5.283783 1.8125l0.0625 0.8125q0.75 -0.9375 2.015625 -0.9375q1.125 0 1.671875 0.65625q0.546875 0.65625 0.5625 1.96875l0 4.546875l-1.890625 0l0 -4.5q0 -0.609375 -0.265625 -0.875q-0.25 -0.265625 -0.859375 -0.265625q-0.78125 0 -1.1875 0.671875l0 4.96875l-1.875 0l0 -7.046875l1.765625 0zm7.7145386 7.046875l-1.890625 0l0 -7.046875l1.890625 0l0 7.046875zm-2.0 -8.859375q0 -0.4218712 0.28125 -0.6874962q0.296875 -0.28125 0.78125 -0.28125q0.484375 0 0.765625 0.28125q0.28125 0.265625 0.28125 0.6874962q0 0.421875 -0.296875 0.703125q-0.28125 0.265625 -0.765625 0.265625q-0.46875 0 -0.765625 -0.265625q-0.28125 -0.28125 -0.28125 -0.703125zm5.283783 1.8125l0.0625 0.8125q0.75 -0.9375 2.015625 -0.9375q1.125 0 1.671875 0.65625q0.546875 0.65625 0.5625 1.96875l0 4.546875l-1.890625 0l0 -4.5q0 -0.609375 -0.265625 -0.875q-0.25 -0.265625 -0.859375 -0.265625q-0.78125 0 -1.1875 0.671875l0 4.96875l-1.875 0l0 -7.046875l1.765625 0zm5.4645386 3.46875q0 -1.609375 0.765625 -2.59375q0.765625 -1.0 2.078125 -1.0q1.15625 0 1.8125 0.796875l0.078125 -0.671875l1.703125 0l0 6.8125q0 0.921875 -0.421875 1.609375q-0.421875 0.6875 -1.1875 1.03125q-0.765625 0.359375 -1.78125 0.359375q-0.765625 0 -1.515625 -0.3125q-0.734375 -0.296875 -1.109375 -0.78125l0.84375 -1.15625q0.703125 0.796875 1.703125 0.796875q0.75 0 1.15625 -0.40625q0.421875 -0.40625 0.421875 -1.140625l0 -0.375q-0.65625 0.734375 -1.71875 0.734375q-1.265625 0 -2.046875 -0.984375q-0.78125 -1.0 -0.78125 -2.640625l0 -0.078125zm1.875 0.140625q0 0.953125 0.375 1.5q0.390625 0.546875 1.0625 0.546875q0.859375 0 1.234375 -0.640625l0 -2.96875q-0.375 -0.640625 -1.21875 -0.640625q-0.671875 0 -1.0625 0.5625q-0.390625 0.546875 -0.390625 1.640625z" fill-rule="nonzero"/><path fill="#3d3c3c" d="m166.29254 89.00761l0 -9.46875l2.921875 0q1.25 0 2.234375 0.5625q0.984375 0.5625 1.53125 1.59375q0.5625 1.03125 0.5625 2.359375l0 0.4375q0 1.3125 -0.546875 2.34375q-0.546875 1.03125 -1.53125 1.609375q-0.984375 0.5625 -2.234375 0.5625l-2.9375 0zm1.953125 -7.890625l0 6.328125l0.9375 0q1.15625 0 1.75 -0.75q0.609375 -0.75 0.625 -2.140625l0 -0.5q0 -1.453125 -0.609375 -2.1875q-0.59375 -0.75 -1.734375 -0.75l-0.96875 0zm10.661987 7.890625q-0.125 -0.25 -0.1875 -0.625q-0.671875 0.75 -1.765625 0.75q-1.046875 0 -1.734375 -0.59375q-0.671875 -0.59375 -0.671875 -1.515625q0 -1.109375 0.828125 -1.703125q0.84375 -0.609375 2.40625 -0.609375l0.859375 0l0 -0.40625q0 -0.484375 -0.25 -0.78125q-0.25 -0.296875 -0.78125 -0.296875q-0.484375 0 -0.75 0.234375q-0.265625 0.21875 -0.265625 0.625l-1.890625 0q0 -0.609375 0.375 -1.125q0.390625 -0.53125 1.078125 -0.828125q0.6875 -0.296875 1.546875 -0.296875q1.296875 0 2.0625 0.65625q0.765625 0.65625 0.765625 1.84375l0 3.046875q0.015625 1.0 0.28125 1.515625l0 0.109375l-1.90625 0zm-1.546875 -1.3125q0.40625 0 0.75 -0.171875q0.359375 -0.1875 0.53125 -0.5l0 -1.21875l-0.703125 0q-1.40625 0 -1.5 0.984375l0 0.109375q0 0.34375 0.234375 0.578125q0.25 0.21875 0.6875 0.21875zm6.864395 -7.453125l0 1.71875l1.203125 0l0 1.390625l-1.203125 0l0 3.515625q0 0.390625 0.15625 0.5625q0.15625 0.15625 0.578125 0.15625q0.3125 0 0.546875 -0.046875l0 1.4375q-0.546875 0.15625 -1.140625 0.15625q-1.984375 0 -2.015625 -2.0l0 -3.78125l-1.03125 0l0 -1.390625l1.03125 0l0 -1.71875l1.875 0zm6.3315735 8.765625q-0.125 -0.25 -0.1875 -0.625q-0.671875 0.75 -1.765625 0.75q-1.046875 0 -1.734375 -0.59375q-0.671875 -0.59375 -0.671875 -1.515625q0 -1.109375 0.828125 -1.703125q0.84375 -0.609375 2.40625 -0.609375l0.859375 0l0 -0.40625q0 -0.484375 -0.25 -0.78125q-0.25 -0.296875 -0.78125 -0.296875q-0.484375 0 -0.75 0.234375q-0.265625 0.21875 -0.265625 0.625l-1.890625 0q0 -0.609375 0.375 -1.125q0.390625 -0.53125 1.078125 -0.828125q0.6875 -0.296875 1.546875 -0.296875q1.296875 0 2.0625 0.65625q0.765625 0.65625 0.765625 1.84375l0 3.046875q0.015625 1.0 0.28125 1.515625l0 0.109375l-1.90625 0zm-1.546875 -1.3125q0.40625 0 0.75 -0.171875q0.359375 -0.1875 0.53125 -0.5l0 -1.21875l-0.703125 0q-1.40625 0 -1.5 0.984375l0 0.109375q0 0.34375 0.234375 0.578125q0.25 0.21875 0.6875 0.21875zm8.426895 -0.640625q0 -0.34375 -0.34375 -0.53125q-0.328125 -0.203125 -1.09375 -0.359375q-2.515625 -0.53125 -2.515625 -2.140625q0 -0.9375 0.78125 -1.5625q0.78125 -0.625 2.03125 -0.625q1.34375 0 2.140625 0.640625q0.8125 0.625 0.8125 1.625l-1.875 0q0 -0.390625 -0.265625 -0.65625q-0.265625 -0.265625 -0.8125 -0.265625q-0.46875 0 -0.734375 0.21875q-0.265625 0.203125 -0.265625 0.546875q0 0.3125 0.296875 0.5q0.296875 0.1875 1.0 0.328125q0.703125 0.140625 1.1875 0.3125q1.484375 0.546875 1.484375 1.890625q0 0.96875 -0.828125 1.5625q-0.8125 0.59375 -2.125 0.59375q-0.890625 0 -1.578125 -0.3125q-0.6875 -0.3125 -1.078125 -0.859375q-0.390625 -0.546875 -0.390625 -1.1875l1.78125 0q0.03125 0.5 0.375 0.765625q0.34375 0.265625 0.921875 0.265625q0.546875 0 0.8125 -0.203125q0.28125 -0.203125 0.28125 -0.546875zm6.2902985 2.078125q-1.546875 0 -2.53125 -0.9375q-0.96875 -0.953125 -0.96875 -2.53125l0 -0.1875q0 -1.0625 0.40625 -1.890625q0.40625 -0.84375 1.15625 -1.296875q0.765625 -0.453125 1.71875 -0.453125q1.453125 0 2.28125 0.921875q0.828125 0.90625 0.828125 2.578125l0 0.765625l-4.484375 0q0.09375 0.6875 0.546875 1.109375q0.46875 0.40625 1.171875 0.40625q1.078125 0 1.6875 -0.78125l0.921875 1.03125q-0.421875 0.59375 -1.140625 0.9375q-0.71875 0.328125 -1.59375 0.328125zm-0.21875 -5.78125q-0.5625 0 -0.90625 0.390625q-0.34375 0.375 -0.453125 1.078125l2.625 0l0 -0.15625q-0.015625 -0.625 -0.34375 -0.96875q-0.328125 -0.34375 -0.921875 -0.34375zm6.4229736 -3.109375l0 1.71875l1.203125 0l0 1.390625l-1.203125 0l0 3.515625q0 0.390625 0.15625 0.5625q0.15625 0.15625 0.578125 0.15625q0.3125 0 0.546875 -0.046875l0 1.4375q-0.546875 0.15625 -1.140625 0.15625q-1.984375 0 -2.015625 -2.0l0 -3.78125l-1.03125 0l0 -1.390625l1.03125 0l0 -1.71875l1.875 0zm6.0659485 6.8125q0 -0.34375 -0.34375 -0.53125q-0.328125 -0.203125 -1.09375 -0.359375q-2.515625 -0.53125 -2.515625 -2.140625q0 -0.9375 0.78125 -1.5625q0.78125 -0.625 2.03125 -0.625q1.34375 0 2.140625 0.640625q0.8125 0.625 0.8125 1.625l-1.875 0q0 -0.390625 -0.265625 -0.65625q-0.265625 -0.265625 -0.8125 -0.265625q-0.46875 0 -0.734375 0.21875q-0.265625 0.203125 -0.265625 0.546875q0 0.3125 0.296875 0.5q0.296875 0.1875 1.0 0.328125q0.703125 0.140625 1.1875 0.3125q1.484375 0.546875 1.484375 1.890625q0 0.96875 -0.828125 1.5625q-0.8125 0.59375 -2.125 0.59375q-0.890625 0 -1.578125 -0.3125q-0.6875 -0.3125 -1.078125 -0.859375q-0.390625 -0.546875 -0.390625 -1.1875l1.78125 0q0.03125 0.5 0.375 0.765625q0.34375 0.265625 0.921875 0.265625q0.546875 0 0.8125 -0.203125q0.28125 -0.203125 0.28125 -0.546875z" fill-rule="nonzero"/><path fill="#3d3c3c" d="m222.18468 85.47636q0.125 -1.078125 0.578125 -1.9375q0.46875 -0.875 1.140625 -1.296875q0.6875 -0.4375 1.5 -0.40625q1.171875 0.015625 1.8125 0.859375l0.671875 -3.6875l1.171875 0l-1.734375 10.0l-1.0625 0l0.125 -0.75q-0.84375 0.90625 -2.0625 0.875q-0.96875 -0.015625 -1.5625 -0.75q-0.578125 -0.75 -0.625 -1.984375q-0.015625 -0.390625 0.046875 -0.921875zm1.125 0.671875q-0.015625 0.9375 0.328125 1.453125q0.359375 0.515625 1.03125 0.515625q1.015625 0.046875 1.8125 -1.015625l0.5625 -3.265625q-0.390625 -0.953125 -1.421875 -0.984375q-0.6875 -0.015625 -1.21875 0.421875q-0.53125 0.4375 -0.8125 1.234375q-0.28125 0.78125 -0.28125 1.640625z" fill-rule="nonzero"/><path fill="#ffffff" d="m308.11804 355.9246l0 109.165344l-224.7244 0l0 -109.165344z" fill-rule="evenodd"/><path stroke="#3d3c3c" stroke-width="1.0" stroke-linejoin="round" stroke-linecap="butt" d="m308.11804 355.9246l0 109.165344l-224.7244 0l0 -109.165344z" fill-rule="evenodd"/><path fill="#ffffff" d="m554.36725 355.9246l0 109.165344l-224.72443 0l0 -109.165344z" fill-rule="evenodd"/><path stroke="#3d3c3c" stroke-width="1.0" stroke-linejoin="round" stroke-linecap="butt" d="m554.36725 355.9246l0 109.165344l-224.72443 0l0 -109.165344z" fill-rule="evenodd"/><path fill="#ffffff" d="m677.0888 355.92374l0 109.165344l-100.37793 0l0 -109.165344z" fill-rule="evenodd"/><path stroke="#3d3c3c" stroke-width="1.0" stroke-linejoin="round" stroke-linecap="butt" d="m677.0888 355.92374l0 109.165344l-100.37793 0l0 -109.165344z" fill-rule="evenodd"/><path fill="#ffffff" d="m852.8189 355.9246l0 109.165344l-153.38586 0l0 -109.165344z" fill-rule="evenodd"/><path stroke="#3d3c3c" stroke-width="1.0" stroke-linejoin="round" stroke-linecap="butt" d="m852.8189 355.9246l0 109.165344l-153.38586 0l0 -109.165344z" fill-rule="evenodd"/><path fill="#000000" fill-opacity="0.0" d="m40.133938 470.43307l211.08661 0l0 26.897644l-211.08661 0z" fill-rule="evenodd"/><path fill="#3d3c3c" d="m55.680813 484.8069l-3.75 0l0 3.875l-1.953125 0l0 -9.46875l6.171875 0l0 1.578125l-4.21875 0l0 2.4375l3.75 0l0 1.578125zm4.5869904 4.0q-1.546875 0 -2.53125 -0.9375q-0.96875 -0.953125 -0.96875 -2.53125l0 -0.1875q0 -1.0625 0.40625 -1.890625q0.40625 -0.84375 1.15625 -1.296875q0.765625 -0.453125 1.71875 -0.453125q1.453125 0 2.28125 0.921875q0.828125 0.90625 0.828125 2.578125l0 0.765625l-4.484375 0q0.09375 0.6875 0.546875 1.109375q0.46875 0.40625 1.171875 0.40625q1.078125 0 1.6875 -0.78125l0.921875 1.03125q-0.421875 0.59375 -1.140625 0.9375q-0.71875 0.328125 -1.59375 0.328125zm-0.21875 -5.78125q-0.5625 0 -0.90625 0.390625q-0.34375 0.375 -0.453125 1.078125l2.625 0l0 -0.15625q-0.015625 -0.625 -0.34375 -0.96875q-0.328125 -0.34375 -0.921875 -0.34375zm8.251095 5.65625q-0.125 -0.25 -0.1875 -0.625q-0.671875 0.75 -1.765625 0.75q-1.046875 0 -1.734375 -0.59375q-0.6718712 -0.59375 -0.6718712 -1.515625q0 -1.109375 0.8281212 -1.703125q0.84375 -0.609375 2.40625 -0.609375l0.859375 0l0 -0.40625q0 -0.484375 -0.25 -0.78125q-0.25 -0.296875 -0.78125 -0.296875q-0.484375 0 -0.75 0.234375q-0.265625 0.21875 -0.265625 0.625l-1.890625 0q0 -0.609375 0.375 -1.125q0.390625 -0.53125 1.078125 -0.828125q0.6875 -0.296875 1.546875 -0.296875q1.296875 0 2.0625 0.65625q0.765625 0.65625 0.765625 1.84375l0 3.046875q0.015625 1.0 0.28125 1.515625l0 0.109375l-1.90625 0zm-1.546875 -1.3125q0.40625 0 0.75 -0.171875q0.359375 -0.1875 0.53125 -0.5l0 -1.21875l-0.703125 0q-1.40625 0 -1.5 0.984375l0 0.109375q0 0.34375 0.234375 0.578125q0.25 0.21875 0.6875 0.21875zm6.864395 -7.453125l0 1.71875l1.203125 0l0 1.390625l-1.203125 0l0 3.515625q0 0.390625 0.15625 0.5625q0.15625 0.15625 0.578125 0.15625q0.3125 0 0.546875 -0.046875l0 1.4375q-0.546875 0.15625 -1.140625 0.15625q-1.984375 0 -2.015625 -2.0l0 -3.78125l-1.03125 0l0 -1.390625l1.03125 0l0 -1.71875l1.875 0zm6.4721985 8.046875q-0.6875 0.84375 -1.921875 0.84375q-1.140625 0 -1.734375 -0.640625q-0.59375 -0.65625 -0.609375 -1.90625l0 -4.625l1.890625 0l0 4.546875q0 1.109375 1.0 1.109375q0.953125 0 1.3125 -0.671875l0 -4.984375l1.890625 0l0 7.046875l-1.78125 0l-0.046875 -0.71875zm7.192398 -4.5625q-0.375 -0.046875 -0.671875 -0.046875q-1.0625 0 -1.390625 0.71875l0 4.609375l-1.890625 0l0 -7.046875l1.78125 0l0.046875 0.84375q0.578125 -0.96875 1.578125 -0.96875q0.3125 0 0.578125 0.078125l-0.03125 1.8125zm4.034561 5.40625q-1.546875 0 -2.53125 -0.9375q-0.96875 -0.953125 -0.96875 -2.53125l0 -0.1875q0 -1.0625 0.40625 -1.890625q0.40625 -0.84375 1.15625 -1.296875q0.765625 -0.453125 1.71875 -0.453125q1.453125 0 2.28125 0.921875q0.828125 0.90625 0.828125 2.578125l0 0.765625l-4.484375 0q0.09375 0.6875 0.546875 1.109375q0.46875 0.40625 1.171875 0.40625q1.078125 0 1.6875 -0.78125l0.921875 1.03125q-0.421875 0.59375 -1.140625 0.9375q-0.71875 0.328125 -1.59375 0.328125zm-0.21875 -5.78125q-0.5625 0 -0.90625 0.390625q-0.34375 0.375 -0.453125 1.078125l2.625 0l0 -0.15625q-0.015625 -0.625 -0.34375 -0.96875q-0.328125 -0.34375 -0.921875 -0.34375zm15.116989 4.453125q-0.53125 0.640625 -1.5 0.984375q-0.953125 0.34375 -2.125 0.34375q-1.234375 0 -2.15625 -0.53125q-0.921875 -0.53125 -1.4375 -1.546875q-0.5 -1.03125 -0.515625 -2.40625l0 -0.65625q0 -1.421875 0.46875 -2.453125q0.484375 -1.03125 1.390625 -1.578125q0.90625 -0.5625 2.109375 -0.5625q1.6875 0 2.640625 0.8125q0.953125 0.796875 1.125 2.328125l-1.90625 0q-0.125 -0.8125 -0.578125 -1.1875q-0.4375 -0.375 -1.21875 -0.375q-1.0 0 -1.515625 0.75q-0.515625 0.75 -0.53125 2.21875l0 0.609375q0 1.484375 0.5625 2.25q0.578125 0.765625 1.671875 0.765625q1.09375 0 1.5625 -0.46875l0 -1.640625l-1.78125 0l0 -1.4375l3.734375 0l0 3.78125zm5.406616 -4.078125q-0.375 -0.046875 -0.671875 -0.046875q-1.0625 0 -1.390625 0.71875l0 4.609375l-1.890625 0l0 -7.046875l1.78125 0l0.046875 0.84375q0.578125 -0.96875 1.578125 -0.96875q0.3125 0 0.578125 0.078125l-0.03125 1.8125zm0.37701416 1.703125q0 -1.0625 0.40625 -1.875q0.40625 -0.828125 1.15625 -1.265625q0.765625 -0.453125 1.765625 -0.453125q1.4375 0 2.328125 0.875q0.90625 0.875 1.015625 2.359375l0 0.484375q0 1.625 -0.90625 2.609375q-0.890625 0.96875 -2.421875 0.96875q-1.515625 0 -2.4375 -0.96875q-0.90625 -0.984375 -0.90625 -2.65625l0 -0.078125zm1.890625 0.125q0 1.0 0.375 1.53125q0.375 0.53125 1.078125 0.53125q0.6875 0 1.0625 -0.515625q0.390625 -0.53125 0.390625 -1.671875q0 -0.984375 -0.390625 -1.53125q-0.375 -0.546875 -1.078125 -0.546875q-0.6875 0 -1.0625 0.546875q-0.375 0.53125 -0.375 1.65625zm10.161118 2.734375q-0.6875 0.84375 -1.921875 0.84375q-1.140625 0 -1.734375 -0.640625q-0.59375 -0.65625 -0.609375 -1.90625l0 -4.625l1.890625 0l0 4.546875q0 1.109375 1.0 1.109375q0.953125 0 1.3125 -0.671875l0 -4.984375l1.890625 0l0 7.046875l-1.78125 0l-0.046875 -0.71875zm9.583031 -2.734375q0 1.625 -0.75 2.609375q-0.734375 0.96875 -1.984375 0.96875q-1.0625 0 -1.71875 -0.734375l0 3.3125l-1.8906326 0l0 -9.75l1.7500076 0l0.0625 0.6875q0.6875 -0.8125 1.78125 -0.8125q1.296875 0 2.015625 0.96875q0.734375 0.953125 0.734375 2.65625l0 0.09375zm-1.875 -0.140625q0 -0.984375 -0.359375 -1.515625q-0.34375 -0.53125 -1.015625 -0.53125q-0.875 0 -1.203125 0.671875l0 2.890625q0.34375 0.6875 1.21875 0.6875q1.359375 0 1.359375 -2.203125zm6.847336 1.640625q0 -0.34375 -0.34375 -0.53125q-0.328125 -0.203125 -1.09375 -0.359375q-2.515625 -0.53125 -2.515625 -2.140625q0 -0.9375 0.78125 -1.5625q0.78125 -0.625 2.03125 -0.625q1.34375 0 2.140625 0.640625q0.8125 0.625 0.8125 1.625l-1.875 0q0 -0.390625 -0.265625 -0.65625q-0.265625 -0.265625 -0.8125 -0.265625q-0.46875 0 -0.734375 0.21875q-0.265625 0.203125 -0.265625 0.546875q0 0.3125 0.296875 0.5q0.296875 0.1875 1.0 0.328125q0.703125 0.140625 1.1875 0.3125q1.484375 0.546875 1.484375 1.890625q0 0.96875 -0.828125 1.5625q-0.8125 0.59375 -2.125 0.59375q-0.890625 0 -1.578125 -0.3125q-0.6875 -0.3125 -1.078125 -0.859375q-0.390625 -0.546875 -0.390625 -1.1875l1.78125 0q0.03125 0.5 0.375 0.765625q0.34375 0.265625 0.921875 0.265625q0.546875 0 0.8125 -0.203125q0.28125 -0.203125 0.28125 -0.546875z" fill-rule="nonzero"/><path fill="#3d3c3c" d="m144.79324 485.15063q0.15625 -1.15625 0.625 -2.0q0.46875 -0.859375 1.125 -1.265625q0.671875 -0.40625 1.46875 -0.375q1.21875 0.015625 1.84375 0.921875l0.234375 -0.796875l1.078125 0l-1.171875 6.890625q-0.1875 1.359375 -1.09375 2.15625q-0.90625 0.8125 -2.234375 0.78125q-0.703125 -0.015625 -1.359375 -0.34375q-0.65625 -0.328125 -1.03125 -0.890625l0.671875 -0.71875q0.625 0.9375 1.671875 0.96875q0.84375 0.03125 1.421875 -0.46875q0.59375 -0.5 0.78125 -1.40625l0.125 -0.625q-0.859375 0.859375 -2.015625 0.828125q-0.65625 -0.015625 -1.140625 -0.34375q-0.484375 -0.34375 -0.75 -0.96875q-0.265625 -0.640625 -0.296875 -1.421875q0 -0.390625 0.046875 -0.921875zm1.140625 0.671875q-0.015625 0.921875 0.3125 1.4375q0.34375 0.515625 1.046875 0.53125q1.046875 0.03125 1.8125 -1.03125l0.546875 -3.234375q-0.390625 -0.96875 -1.40625 -1.0q-0.953125 -0.03125 -1.578125 0.78125q-0.609375 0.8125 -0.71875 2.171875l-0.015625 0.34375z" fill-rule="nonzero"/><path fill="#000000" fill-opacity="0.0" d="m192.59055 355.9241l115.52756 0l0 20.346466l-115.52756 0z" fill-rule="evenodd"/><path fill="#1eb182" d="m285.74597 367.3661q0.15625 -1.15625 0.625 -2.0q0.46875 -0.859375 1.125 -1.265625q0.671875 -0.40625 1.46875 -0.375q1.21875 0.015625 1.84375 0.921875l0.234375 -0.796875l1.078125 0l-1.171875 6.890625q-0.1875 1.359375 -1.09375 2.15625q-0.90625 0.8125 -2.234375 0.78125q-0.703125 -0.015625 -1.359375 -0.34375q-0.65625 -0.328125 -1.03125 -0.890625l0.671875 -0.71875q0.625 0.9375 1.671875 0.96875q0.84375 0.03125 1.421875 -0.46875q0.59375 -0.5 0.78125 -1.40625l0.125 -0.625q-0.859375 0.859375 -2.015625 0.828125q-0.65625 -0.015625 -1.140625 -0.34375q-0.484375 -0.34375 -0.75 -0.96875q-0.265625 -0.640625 -0.296875 -1.421875q0 -0.390625 0.046875 -0.921875zm1.140625 0.671875q-0.015625 0.921875 0.3125 1.4375q0.34375 0.515625 1.046875 0.53125q1.046875 0.03125 1.8125 -1.03125l0.546875 -3.234375q-0.390625 -0.96875 -1.40625 -1.0q-0.953125 -0.03125 -1.578125 0.78125q-0.609375 0.8125 -0.71875 2.171875l-0.015625 0.34375z" fill-rule="nonzero"/><path fill="#1eb182" d="m296.06732 370.89734l-1.078125 0l1.265625 -7.203125l-2.28125 0.796875l0.1875 -1.03125l3.171875 -1.140625l0.1875 0l-1.453125 8.578125z" fill-rule="nonzero"/><path fill="#000000" fill-opacity="0.0" d="m438.839 355.9241l115.52753 0l0 20.346466l-115.52753 0z" fill-rule="evenodd"/><path fill="#1eb182" d="m531.9944 367.3661q0.15625 -1.15625 0.625 -2.0q0.46875 -0.859375 1.125 -1.265625q0.671875 -0.40625 1.46875 -0.375q1.21875 0.015625 1.84375 0.921875l0.234375 -0.796875l1.078125 0l-1.171875 6.890625q-0.1875 1.359375 -1.09375 2.15625q-0.90625 0.8125 -2.234375 0.78125q-0.703125 -0.015625 -1.359375 -0.34375q-0.65625 -0.328125 -1.03125 -0.890625l0.671875 -0.71875q0.625 0.9375 1.671875 0.96875q0.84375 0.03125 1.421875 -0.46875q0.59375 -0.5 0.78125 -1.40625l0.125 -0.625q-0.859375 0.859375 -2.015625 0.828125q-0.65625 -0.015625 -1.140625 -0.34375q-0.484375 -0.34375 -0.75 -0.96875q-0.265625 -0.640625 -0.296875 -1.421875q0 -0.390625 0.046875 -0.921875zm1.140625 0.671875q-0.015625 0.921875 0.3125 1.4375q0.34375 0.515625 1.046875 0.53125q1.046875 0.03125 1.8125 -1.03125l0.546875 -3.234375q-0.390625 -0.96875 -1.40625 -1.0q-0.953125 -0.03125 -1.578125 0.78125q-0.609375 0.8125 -0.71875 2.171875l-0.015625 0.34375z" fill-rule="nonzero"/><path fill="#1eb182" d="m544.33136 370.89734l-5.421875 0l0.125 -0.828125l3.140625 -3.0625l0.578125 -0.5625q0.984375 -0.984375 1.09375 -1.828125q0.078125 -0.640625 -0.25 -1.046875q-0.328125 -0.40625 -0.921875 -0.4375q-0.765625 -0.015625 -1.28125 0.453125q-0.515625 0.46875 -0.625 1.28125l-1.0625 0.015625q0.078125 -0.78125 0.484375 -1.390625q0.40625 -0.609375 1.078125 -0.9375q0.671875 -0.328125 1.4375 -0.3125q1.0625 0.03125 1.6875 0.65625q0.625 0.609375 0.546875 1.59375q-0.109375 1.125 -1.296875 2.375l-0.546875 0.53125l-2.734375 2.609375l4.109375 0l-0.140625 0.890625z" fill-rule="nonzero"/><path fill="#000000" fill-opacity="0.0" d="m561.56146 355.9241l115.52753 0l0 20.346466l-115.52753 0z" fill-rule="evenodd"/><path fill="#1eb182" d="m654.71686 367.3661q0.15625 -1.15625 0.625 -2.0q0.46875 -0.859375 1.125 -1.265625q0.671875 -0.40625 1.46875 -0.375q1.21875 0.015625 1.84375 0.921875l0.234375 -0.796875l1.078125 0l-1.171875 6.890625q-0.1875 1.359375 -1.09375 2.15625q-0.90625 0.8125 -2.234375 0.78125q-0.703125 -0.015625 -1.359375 -0.34375q-0.65625 -0.328125 -1.03125 -0.890625l0.671875 -0.71875q0.625 0.9375 1.671875 0.96875q0.84375 0.03125 1.421875 -0.46875q0.59375 -0.5 0.78125 -1.40625l0.125 -0.625q-0.859375 0.859375 -2.015625 0.828125q-0.65625 -0.015625 -1.140625 -0.34375q-0.484375 -0.34375 -0.75 -0.96875q-0.265625 -0.640625 -0.296875 -1.421875q0 -0.390625 0.046875 -0.921875zm1.140625 0.671875q-0.015625 0.921875 0.3125 1.4375q0.34375 0.515625 1.046875 0.53125q1.046875 0.03125 1.8125 -1.03125l0.546875 -3.234375q-0.390625 -0.96875 -1.40625 -1.0q-0.953125 -0.03125 -1.578125 0.78125q-0.609375 0.8125 -0.71875 2.171875l-0.015625 0.34375z" fill-rule="nonzero"/><path fill="#1eb182" d="m663.92883 366.10046l0.703125 0.015625q0.78125 0 1.296875 -0.40625q0.53125 -0.421875 0.609375 -1.109375q0.078125 -0.6875 -0.25 -1.078125q-0.328125 -0.390625 -0.953125 -0.390625q-0.671875 -0.015625 -1.140625 0.390625q-0.453125 0.390625 -0.5625 1.078125l-1.046875 0q0.09375 -1.046875 0.890625 -1.703125q0.8125 -0.671875 1.90625 -0.65625q1.078125 0.03125 1.6875 0.671875q0.609375 0.640625 0.53125 1.703125q-0.046875 0.609375 -0.46875 1.109375q-0.40625 0.5 -1.125 0.828125q0.578125 0.234375 0.859375 0.75q0.296875 0.5 0.25 1.171875q-0.09375 1.15625 -0.921875 1.859375q-0.828125 0.703125 -2.0 0.6875q-1.09375 -0.03125 -1.75 -0.6875q-0.640625 -0.65625 -0.59375 -1.6875l1.046875 0q-0.03125 0.65625 0.3125 1.0625q0.359375 0.390625 1.03125 0.421875q0.75 0.015625 1.25 -0.421875q0.5 -0.453125 0.5625 -1.21875q0.0625 -0.6875 -0.3125 -1.078125q-0.375 -0.390625 -1.140625 -0.421875l-0.8125 0l0.140625 -0.890625z" fill-rule="nonzero"/><path fill="#000000" fill-opacity="0.0" d="m737.29144 355.9241l115.52759 0l0 20.346466l-115.52759 0z" fill-rule="evenodd"/><path fill="#1eb182" d="m830.4469 367.3661q0.15625 -1.15625 0.625 -2.0q0.46875 -0.859375 1.125 -1.265625q0.671875 -0.40625 1.46875 -0.375q1.21875 0.015625 1.84375 0.921875l0.234375 -0.796875l1.078125 0l-1.171875 6.890625q-0.1875 1.359375 -1.09375 2.15625q-0.90625 0.8125 -2.234375 0.78125q-0.703125 -0.015625 -1.359375 -0.34375q-0.65625 -0.328125 -1.03125 -0.890625l0.671875 -0.71875q0.625 0.9375 1.671875 0.96875q0.84375 0.03125 1.421875 -0.46875q0.59375 -0.5 0.78125 -1.40625l0.125 -0.625q-0.859375 0.859375 -2.015625 0.828125q-0.65625 -0.015625 -1.140625 -0.34375q-0.484375 -0.34375 -0.75 -0.96875q-0.265625 -0.640625 -0.296875 -1.421875q0 -0.390625 0.046875 -0.921875zm1.140625 0.671875q-0.015625 0.921875 0.3125 1.4375q0.34375 0.515625 1.046875 0.53125q1.046875 0.03125 1.8125 -1.03125l0.546875 -3.234375q-0.390625 -0.96875 -1.40625 -1.0q-0.953125 -0.03125 -1.578125 0.78125q-0.609375 0.8125 -0.71875 2.171875l-0.015625 0.34375z" fill-rule="nonzero"/><path fill="#1eb182" d="m842.237 368.03796l1.15625 0l-0.15625 0.875l-1.140625 0l-0.34375 1.984375l-1.078125 0l0.34375 -1.984375l-3.765625 0l0.125 -0.6875l4.6875 -5.859375l1.15625 0l-0.984375 5.671875zm-3.59375 0l2.53125 0l0.765625 -4.203125l-0.171875 0.25l-3.125 3.953125z" fill-rule="nonzero"/><path fill="#1eb182" d="m90.03281 410.50656l0 0c0 -9.915039 8.037727 -17.952759 17.952759 -17.952759l0 0c4.761368 0 9.327721 1.891449 12.694511 5.2582397c3.3667984 3.3667908 5.2582474 7.9331665 5.2582474 12.694519l0 0c0 9.915039 -8.037727 17.952759 -17.952759 17.952759l0 0c-9.915031 0 -17.952759 -8.03772 -17.952759 -17.952759z" fill-rule="evenodd"/><path stroke="#1eb182" stroke-width="1.0" stroke-linejoin="round" stroke-linecap="butt" d="m90.03281 410.50656l0 0c0 -9.915039 8.037727 -17.952759 17.952759 -17.952759l0 0c4.761368 0 9.327721 1.891449 12.694511 5.2582397c3.3667984 3.3667908 5.2582474 7.9331665 5.2582474 12.694519l0 0c0 9.915039 -8.037727 17.952759 -17.952759 17.952759l0 0c-9.915031 0 -17.952759 -8.03772 -17.952759 -17.952759z" fill-rule="evenodd"/><path fill="#000000" fill-opacity="0.0" d="m90.03412 390.86877l35.905518 0l0 39.275574l-35.905518 0z" fill-rule="evenodd"/><path fill="#ffffff" d="m103.656975 413.94876l1.171875 -6.71875l-1.203125 0l0.1875 -1.03125l1.1875 0l0.125 -0.90625q0.1875 -1.171875 0.90625 -1.828125q0.75 -0.6875 1.90625 -0.671875q0.375 0 0.921875 0.125l-0.15625 1.078125q-0.34375 -0.078125 -0.6875 -0.09375q-0.671875 0 -1.09375 0.421875q-0.421875 0.421875 -0.515625 1.109375l-0.109375 0.765625l1.59375 0l-0.171875 1.03125l-1.609375 0l-1.171875 6.71875l-1.28125 0z" fill-rule="nonzero"/><path fill="#ffffff" d="m110.68206 419.44876l-0.859375 0l1.015625 -5.859375l-1.84375 0.65625l0.140625 -0.84375l2.578125 -0.921875l0.15625 0l-1.1875 6.96875z" fill-rule="nonzero"/><path fill="#1eb182" d="m134.12665 410.50656l0 0c0 -9.915039 8.03772 -17.952759 17.952744 -17.952759l0 0c4.761368 0 9.327728 1.891449 12.694519 5.2582397c3.3667908 3.3667908 5.2582397 7.9331665 5.2582397 12.694519l0 0c0 9.915039 -8.03772 17.952759 -17.952759 17.952759l0 0c-9.915024 0 -17.952744 -8.03772 -17.952744 -17.952759z" fill-rule="evenodd"/><path stroke="#1eb182" stroke-width="1.0" stroke-linejoin="round" stroke-linecap="butt" d="m134.12665 410.50656l0 0c0 -9.915039 8.03772 -17.952759 17.952744 -17.952759l0 0c4.761368 0 9.327728 1.891449 12.694519 5.2582397c3.3667908 3.3667908 5.2582397 7.9331665 5.2582397 12.694519l0 0c0 9.915039 -8.03772 17.952759 -17.952759 17.952759l0 0c-9.915024 0 -17.952744 -8.03772 -17.952744 -17.952759z" fill-rule="evenodd"/><path fill="#000000" fill-opacity="0.0" d="m134.12796 390.86877l35.905502 0l0 39.275574l-35.905502 0z" fill-rule="evenodd"/><path fill="#ffffff" d="m147.75081 413.94876l1.171875 -6.71875l-1.203125 0l0.1875 -1.03125l1.1875 0l0.125 -0.90625q0.1875 -1.171875 0.90625 -1.828125q0.75 -0.6875 1.90625 -0.671875q0.375 0 0.921875 0.125l-0.15625 1.078125q-0.34375 -0.078125 -0.6875 -0.09375q-0.671875 0 -1.09375 0.421875q-0.421875 0.421875 -0.515625 1.109375l-0.109375 0.765625l1.59375 0l-0.171875 1.03125l-1.609375 0l-1.171875 6.71875l-1.28125 0z" fill-rule="nonzero"/><path fill="#ffffff" d="m156.43214 419.44876l-4.421875 0l0.109375 -0.671875l2.5625 -2.484375l0.46875 -0.46875q0.796875 -0.8125 0.890625 -1.484375q0.0625 -0.53125 -0.21875 -0.859375q-0.265625 -0.328125 -0.75 -0.34375q-0.625 -0.03125 -1.046875 0.359375q-0.40625 0.390625 -0.5 1.046875l-0.859375 0.015625q0.0625 -0.640625 0.390625 -1.125q0.34375 -0.5 0.875 -0.765625q0.546875 -0.265625 1.171875 -0.25q0.875 0.015625 1.375 0.515625q0.515625 0.5 0.4375 1.296875q-0.078125 0.921875 -1.046875 1.9375l-0.4375 0.4375l-2.234375 2.125l3.34375 0l-0.109375 0.71875z" fill-rule="nonzero"/><path fill="#1eb182" d="m178.22047 410.50656l0 0c0 -9.915039 8.03772 -17.952759 17.952759 -17.952759l0 0c4.761368 0 9.327713 1.891449 12.694504 5.2582397c3.366806 3.3667908 5.258255 7.9331665 5.258255 12.694519l0 0c0 9.915039 -8.037735 17.952759 -17.952759 17.952759l0 0c-9.915039 0 -17.952759 -8.03772 -17.952759 -17.952759z" fill-rule="evenodd"/><path stroke="#1eb182" stroke-width="1.0" stroke-linejoin="round" stroke-linecap="butt" d="m178.22047 410.50656l0 0c0 -9.915039 8.03772 -17.952759 17.952759 -17.952759l0 0c4.761368 0 9.327713 1.891449 12.694504 5.2582397c3.366806 3.3667908 5.258255 7.9331665 5.258255 12.694519l0 0c0 9.915039 -8.037735 17.952759 -17.952759 17.952759l0 0c-9.915039 0 -17.952759 -8.03772 -17.952759 -17.952759z" fill-rule="evenodd"/><path fill="#000000" fill-opacity="0.0" d="m178.22179 390.86877l35.905518 0l0 39.275574l-35.905518 0z" fill-rule="evenodd"/><path fill="#ffffff" d="m191.84464 413.94876l1.171875 -6.71875l-1.203125 0l0.1875 -1.03125l1.1875 0l0.125 -0.90625q0.1875 -1.171875 0.90625 -1.828125q0.75 -0.6875 1.90625 -0.671875q0.375 0 0.921875 0.125l-0.15625 1.078125q-0.34375 -0.078125 -0.6875 -0.09375q-0.671875 0 -1.09375 0.421875q-0.421875 0.421875 -0.515625 1.109375l-0.109375 0.765625l1.59375 0l-0.171875 1.03125l-1.609375 0l-1.171875 6.71875l-1.28125 0z" fill-rule="nonzero"/><path fill="#ffffff" d="m197.9791 415.5425l0.578125 0.015625q0.625 0 1.046875 -0.328125q0.4375 -0.34375 0.5 -0.90625q0.0625 -0.546875 -0.203125 -0.859375q-0.265625 -0.328125 -0.78125 -0.34375q-0.546875 0 -0.921875 0.328125q-0.375 0.328125 -0.46875 0.875l-0.84375 0q0.078125 -0.859375 0.71875 -1.390625q0.65625 -0.53125 1.5625 -0.53125q0.875 0.015625 1.375 0.546875q0.5 0.53125 0.421875 1.390625q-0.03125 0.5 -0.375 0.90625q-0.328125 0.390625 -0.921875 0.671875q0.46875 0.1875 0.703125 0.609375q0.234375 0.40625 0.203125 0.953125q-0.078125 0.9375 -0.75 1.515625q-0.671875 0.5625 -1.625 0.546875q-0.890625 -0.015625 -1.421875 -0.546875q-0.53125 -0.53125 -0.5 -1.375l0.875 0q-0.03125 0.53125 0.25 0.859375q0.28125 0.328125 0.828125 0.34375q0.609375 0.015625 1.015625 -0.34375q0.40625 -0.375 0.46875 -0.984375q0.046875 -0.5625 -0.265625 -0.875q-0.3125 -0.328125 -0.921875 -0.34375l-0.65625 -0.015625l0.109375 -0.71875z" fill-rule="nonzero"/><path fill="#1eb182" d="m222.3143 410.50656l0 0c0 -9.915039 8.03772 -17.952759 17.952759 -17.952759l0 0c4.761368 0 9.327728 1.891449 12.694519 5.2582397c3.3667908 3.3667908 5.2582397 7.9331665 5.2582397 12.694519l0 0c0 9.915039 -8.03772 17.952759 -17.952759 17.952759l0 0c-9.915039 0 -17.952759 -8.03772 -17.952759 -17.952759z" fill-rule="evenodd"/><path stroke="#1eb182" stroke-width="1.0" stroke-linejoin="round" stroke-linecap="butt" d="m222.3143 410.50656l0 0c0 -9.915039 8.03772 -17.952759 17.952759 -17.952759l0 0c4.761368 0 9.327728 1.891449 12.694519 5.2582397c3.3667908 3.3667908 5.2582397 7.9331665 5.2582397 12.694519l0 0c0 9.915039 -8.03772 17.952759 -17.952759 17.952759l0 0c-9.915039 0 -17.952759 -8.03772 -17.952759 -17.952759z" fill-rule="evenodd"/><path fill="#000000" fill-opacity="0.0" d="m222.31561 390.86877l35.905518 0l0 39.275574l-35.905518 0z" fill-rule="evenodd"/><path fill="#ffffff" d="m235.93848 413.94876l1.171875 -6.71875l-1.203125 0l0.1875 -1.03125l1.1875 0l0.125 -0.90625q0.1875 -1.171875 0.90625 -1.828125q0.75 -0.6875 1.90625 -0.671875q0.375 0 0.921875 0.125l-0.15625 1.078125q-0.34375 -0.078125 -0.6875 -0.09375q-0.671875 0 -1.09375 0.421875q-0.421875 0.421875 -0.515625 1.109375l-0.109375 0.765625l1.59375 0l-0.171875 1.03125l-1.609375 0l-1.171875 6.71875l-1.28125 0z" fill-rule="nonzero"/><path fill="#ffffff" d="m244.18231 417.12064l0.921875 0l-0.125 0.71875l-0.921875 0l-0.28125 1.609375l-0.875 0l0.28125 -1.609375l-3.0625 0l0.09375 -0.5625l3.8125 -4.765625l0.953125 0l-0.796875 4.609375zm-2.9375 0l2.0625 0l0.625 -3.421875l-0.140625 0.203125l-2.546875 3.21875z" fill-rule="nonzero"/><path fill="#1eb182" d="m266.40814 410.50656l0 0c0 -9.915039 8.03772 -17.952759 17.952759 -17.952759l0 0c4.7613525 0 9.327698 1.891449 12.694519 5.2582397c3.3667908 3.3667908 5.2582397 7.9331665 5.2582397 12.694519l0 0c0 9.915039 -8.03772 17.952759 -17.952759 17.952759l0 0c-9.915039 0 -17.952759 -8.03772 -17.952759 -17.952759z" fill-rule="evenodd"/><path stroke="#1eb182" stroke-width="1.0" stroke-linejoin="round" stroke-linecap="butt" d="m266.40814 410.50656l0 0c0 -9.915039 8.03772 -17.952759 17.952759 -17.952759l0 0c4.7613525 0 9.327698 1.891449 12.694519 5.2582397c3.3667908 3.3667908 5.2582397 7.9331665 5.2582397 12.694519l0 0c0 9.915039 -8.03772 17.952759 -17.952759 17.952759l0 0c-9.915039 0 -17.952759 -8.03772 -17.952759 -17.952759z" fill-rule="evenodd"/><path fill="#000000" fill-opacity="0.0" d="m266.40945 390.86877l35.905518 0l0 39.275574l-35.905518 0z" fill-rule="evenodd"/><path fill="#ffffff" d="m280.0323 413.94876l1.171875 -6.71875l-1.203125 0l0.1875 -1.03125l1.1875 0l0.125 -0.90625q0.1875 -1.171875 0.90625 -1.828125q0.75 -0.6875 1.90625 -0.671875q0.375 0 0.921875 0.125l-0.15625 1.078125q-0.34375 -0.078125 -0.6875 -0.09375q-0.671875 0 -1.09375 0.421875q-0.421875 0.421875 -0.515625 1.109375l-0.109375 0.765625l1.59375 0l-0.171875 1.03125l-1.609375 0l-1.171875 6.71875l-1.28125 0z" fill-rule="nonzero"/><path fill="#ffffff" d="m285.22925 415.94876l0.875 -3.4375l3.46875 0l-0.125 0.8125l-2.71875 0l-0.546875 1.890625q0.53125 -0.3125 1.140625 -0.296875q0.859375 0.015625 1.328125 0.65625q0.46875 0.640625 0.375 1.625q-0.09375 1.078125 -0.765625 1.734375q-0.65625 0.640625 -1.65625 0.609375q-0.828125 0 -1.34375 -0.515625q-0.5 -0.53125 -0.53125 -1.40625l0.796875 0q0.046875 0.5625 0.328125 0.890625q0.296875 0.3125 0.78125 0.3125q0.625 0.03125 1.03125 -0.421875q0.421875 -0.453125 0.5 -1.1875q0.0625 -0.65625 -0.234375 -1.0625q-0.28125 -0.421875 -0.84375 -0.4375q-0.34375 -0.015625 -0.625 0.109375q-0.265625 0.109375 -0.53125 0.328125l-0.703125 -0.203125z" fill-rule="nonzero"/><path fill="#1eb182" d="m335.79135 410.50656l0 0c0 -9.915039 8.03772 -17.952759 17.952728 -17.952759l0 0c4.761383 0 9.327728 1.891449 12.694519 5.2582397c3.3668213 3.3667908 5.2582397 7.9331665 5.2582397 12.694519l0 0c0 9.915039 -8.03772 17.952759 -17.952759 17.952759l0 0c-9.915009 0 -17.952728 -8.03772 -17.952728 -17.952759z" fill-rule="evenodd"/><path stroke="#1eb182" stroke-width="1.0" stroke-linejoin="round" stroke-linecap="butt" d="m335.79135 410.50656l0 0c0 -9.915039 8.03772 -17.952759 17.952728 -17.952759l0 0c4.761383 0 9.327728 1.891449 12.694519 5.2582397c3.3668213 3.3667908 5.2582397 7.9331665 5.2582397 12.694519l0 0c0 9.915039 -8.03772 17.952759 -17.952759 17.952759l0 0c-9.915009 0 -17.952728 -8.03772 -17.952728 -17.952759z" fill-rule="evenodd"/><path fill="#000000" fill-opacity="0.0" d="m335.79266 390.86877l35.905487 0l0 39.275574l-35.905487 0z" fill-rule="evenodd"/><path fill="#ffffff" d="m349.4155 413.94876l1.171875 -6.71875l-1.203125 0l0.1875 -1.03125l1.1875 0l0.125 -0.90625q0.1875 -1.171875 0.90625 -1.828125q0.75 -0.6875 1.90625 -0.671875q0.375 0 0.921875 0.125l-0.15625 1.078125q-0.34375 -0.078125 -0.6875 -0.09375q-0.671875 0 -1.09375 0.421875q-0.421875 0.421875 -0.515625 1.109375l-0.109375 0.765625l1.59375 0l-0.171875 1.03125l-1.609375 0l-1.171875 6.71875l-1.28125 0z" fill-rule="nonzero"/><path fill="#ffffff" d="m358.11246 412.49564l-0.0625 0.75l-0.171875 0q-0.953125 0.015625 -1.640625 0.59375q-0.671875 0.5625 -1.046875 1.6875q0.65625 -0.65625 1.515625 -0.625q0.5625 0 0.953125 0.296875q0.390625 0.296875 0.5625 0.8125q0.1875 0.515625 0.125 1.140625q-0.09375 1.046875 -0.75 1.734375q-0.65625 0.6875 -1.625 0.65625q-0.765625 -0.015625 -1.265625 -0.5625q-0.5 -0.546875 -0.5625 -1.46875q-0.046875 -0.5 0.109375 -1.359375q0.328125 -1.78125 1.296875 -2.71875q0.984375 -0.9375 2.46875 -0.9375l0.09375 0zm-1.578125 3.125q-0.46875 0 -0.875 0.28125q-0.40625 0.265625 -0.625 0.703125l-0.03125 0.3125l-0.015625 0.390625q0 0.390625 0.125 0.765625q0.125 0.359375 0.34375 0.546875q0.234375 0.1875 0.5625 0.1875q0.5625 0.03125 0.96875 -0.421875q0.421875 -0.453125 0.5 -1.1875q0.0625 -0.4375 -0.046875 -0.796875q-0.09375 -0.359375 -0.328125 -0.5625q-0.234375 -0.203125 -0.578125 -0.21875z" fill-rule="nonzero"/><path fill="#1eb182" d="m379.88516 410.50656l0 0c0 -9.915039 8.03772 -17.952759 17.952759 -17.952759l0 0c4.761383 0 9.327728 1.891449 12.694519 5.2582397c3.3667908 3.3667908 5.2582397 7.9331665 5.2582397 12.694519l0 0c0 9.915039 -8.03772 17.952759 -17.952759 17.952759l0 0c-9.915039 0 -17.952759 -8.03772 -17.952759 -17.952759z" fill-rule="evenodd"/><path stroke="#1eb182" stroke-width="1.0" stroke-linejoin="round" stroke-linecap="butt" d="m379.88516 410.50656l0 0c0 -9.915039 8.03772 -17.952759 17.952759 -17.952759l0 0c4.761383 0 9.327728 1.891449 12.694519 5.2582397c3.3667908 3.3667908 5.2582397 7.9331665 5.2582397 12.694519l0 0c0 9.915039 -8.03772 17.952759 -17.952759 17.952759l0 0c-9.915039 0 -17.952759 -8.03772 -17.952759 -17.952759z" fill-rule="evenodd"/><path fill="#000000" fill-opacity="0.0" d="m379.88647 390.86877l35.905518 0l0 39.275574l-35.905518 0z" fill-rule="evenodd"/><path fill="#ffffff" d="m393.50934 413.94876l1.171875 -6.71875l-1.203125 0l0.1875 -1.03125l1.1875 0l0.125 -0.90625q0.1875 -1.171875 0.90625 -1.828125q0.75 -0.6875 1.90625 -0.671875q0.375 0 0.921875 0.125l-0.15625 1.078125q-0.34375 -0.078125 -0.6875 -0.09375q-0.671875 0 -1.09375 0.421875q-0.421875 0.421875 -0.515625 1.109375l-0.109375 0.765625l1.59375 0l-0.171875 1.03125l-1.609375 0l-1.171875 6.71875l-1.28125 0z" fill-rule="nonzero"/><path fill="#ffffff" d="m403.12817 413.0425l-3.78125 6.40625l-0.9375 0l3.75 -6.21875l-3.625 0l0.109375 -0.71875l4.5625 0l-0.078125 0.53125z" fill-rule="nonzero"/><path fill="#1eb182" d="m423.979 410.50656l0 0c0 -9.915039 8.03772 -17.952759 17.952759 -17.952759l0 0c4.7613525 0 9.327728 1.891449 12.694519 5.2582397c3.3667908 3.3667908 5.2582397 7.9331665 5.2582397 12.694519l0 0c0 9.915039 -8.03772 17.952759 -17.952759 17.952759l0 0c-9.915039 0 -17.952759 -8.03772 -17.952759 -17.952759z" fill-rule="evenodd"/><path stroke="#1eb182" stroke-width="1.0" stroke-linejoin="round" stroke-linecap="butt" d="m423.979 410.50656l0 0c0 -9.915039 8.03772 -17.952759 17.952759 -17.952759l0 0c4.7613525 0 9.327728 1.891449 12.694519 5.2582397c3.3667908 3.3667908 5.2582397 7.9331665 5.2582397 12.694519l0 0c0 9.915039 -8.03772 17.952759 -17.952759 17.952759l0 0c-9.915039 0 -17.952759 -8.03772 -17.952759 -17.952759z" fill-rule="evenodd"/><path fill="#000000" fill-opacity="0.0" d="m423.98032 390.86877l35.905518 0l0 39.275574l-35.905518 0z" fill-rule="evenodd"/><path fill="#ffffff" d="m437.60318 413.94876l1.171875 -6.71875l-1.203125 0l0.1875 -1.03125l1.1875 0l0.125 -0.90625q0.1875 -1.171875 0.90625 -1.828125q0.75 -0.6875 1.90625 -0.671875q0.375 0 0.921875 0.125l-0.15625 1.078125q-0.34375 -0.078125 -0.6875 -0.09375q-0.671875 0 -1.09375 0.421875q-0.421875 0.421875 -0.515625 1.109375l-0.109375 0.765625l1.59375 0l-0.171875 1.03125l-1.609375 0l-1.171875 6.71875l-1.28125 0z" fill-rule="nonzero"/><path fill="#ffffff" d="m446.8314 414.2769q-0.046875 0.515625 -0.375 0.9375q-0.328125 0.421875 -0.890625 0.6875q0.453125 0.25 0.671875 0.6875q0.21875 0.4375 0.171875 0.9375q-0.0625 0.921875 -0.75 1.484375q-0.6875 0.546875 -1.640625 0.53125q-0.90625 -0.015625 -1.4375 -0.546875q-0.515625 -0.546875 -0.453125 -1.375q0.0625 -0.609375 0.421875 -1.046875q0.375 -0.453125 1.0 -0.71875q-0.359375 -0.265625 -0.546875 -0.65625q-0.171875 -0.390625 -0.140625 -0.84375q0.0625 -0.875 0.6875 -1.421875q0.625 -0.546875 1.546875 -0.515625q0.828125 0.015625 1.3125 0.53125q0.484375 0.515625 0.421875 1.328125zm-1.265625 3.234375q0.046875 -0.53125 -0.234375 -0.890625q-0.28125 -0.359375 -0.828125 -0.390625q-0.59375 0 -1.015625 0.390625q-0.421875 0.375 -0.484375 0.984375q-0.0625 0.546875 0.21875 0.890625q0.296875 0.328125 0.828125 0.328125q0.609375 0.03125 1.015625 -0.34375q0.421875 -0.375 0.5 -0.96875zm0.390625 -3.21875q0.0625 -0.484375 -0.203125 -0.8125q-0.25 -0.328125 -0.703125 -0.34375q-0.53125 -0.015625 -0.90625 0.34375q-0.359375 0.34375 -0.421875 0.890625q-0.0625 0.5 0.1875 0.828125q0.265625 0.3125 0.734375 0.328125q0.515625 0 0.875 -0.34375q0.375 -0.34375 0.4375 -0.890625z" fill-rule="nonzero"/><path fill="#1eb182" d="m468.07285 410.50656l0 0c0 -9.915039 8.03772 -17.952759 17.952759 -17.952759l0 0c4.7613525 0 9.327698 1.891449 12.694489 5.2582397c3.3668213 3.3667908 5.2582397 7.9331665 5.2582397 12.694519l0 0c0 9.915039 -8.03772 17.952759 -17.952728 17.952759l0 0c-9.915039 0 -17.952759 -8.03772 -17.952759 -17.952759z" fill-rule="evenodd"/><path stroke="#1eb182" stroke-width="1.0" stroke-linejoin="round" stroke-linecap="butt" d="m468.07285 410.50656l0 0c0 -9.915039 8.03772 -17.952759 17.952759 -17.952759l0 0c4.7613525 0 9.327698 1.891449 12.694489 5.2582397c3.3668213 3.3667908 5.2582397 7.9331665 5.2582397 12.694519l0 0c0 9.915039 -8.03772 17.952759 -17.952728 17.952759l0 0c-9.915039 0 -17.952759 -8.03772 -17.952759 -17.952759z" fill-rule="evenodd"/><path fill="#000000" fill-opacity="0.0" d="m468.07416 390.86877l35.905487 0l0 39.275574l-35.905487 0z" fill-rule="evenodd"/><path fill="#ffffff" d="m481.697 413.94876l1.171875 -6.71875l-1.203125 0l0.1875 -1.03125l1.1875 0l0.125 -0.90625q0.1875 -1.171875 0.90625 -1.828125q0.75 -0.6875 1.90625 -0.671875q0.375 0 0.921875 0.125l-0.15625 1.078125q-0.34375 -0.078125 -0.6875 -0.09375q-0.671875 0 -1.09375 0.421875q-0.421875 0.421875 -0.515625 1.109375l-0.109375 0.765625l1.59375 0l-0.171875 1.03125l-1.609375 0l-1.171875 6.71875l-1.28125 0z" fill-rule="nonzero"/><path fill="#ffffff" d="m489.76895 416.4019q-0.34375 0.359375 -0.75 0.546875q-0.390625 0.1875 -0.78125 0.171875q-0.546875 0 -0.9375 -0.296875q-0.390625 -0.3125 -0.578125 -0.828125q-0.171875 -0.53125 -0.109375 -1.140625q0.0625 -0.6875 0.375 -1.265625q0.328125 -0.578125 0.84375 -0.890625q0.53125 -0.3125 1.15625 -0.28125q0.84375 0.015625 1.3125 0.59375q0.46875 0.578125 0.5 1.5625q0.015625 0.5 -0.109375 1.265625q-0.3125 1.78125 -1.25 2.6875q-0.921875 0.90625 -2.375 0.9375l-0.21875 0l0.078125 -0.75l0.171875 0q1.03125 -0.015625 1.6875 -0.5625q0.65625 -0.5625 0.984375 -1.75zm-1.359375 0q0.4375 0.015625 0.84375 -0.25q0.40625 -0.265625 0.65625 -0.71875l0.03125 -0.34375l0.015625 -0.390625q-0.015625 -0.734375 -0.28125 -1.125q-0.25 -0.40625 -0.71875 -0.421875q-0.59375 -0.03125 -1.015625 0.453125q-0.40625 0.46875 -0.484375 1.1875q-0.03125 0.296875 0.015625 0.609375q0.046875 0.296875 0.171875 0.515625q0.265625 0.46875 0.765625 0.484375z" fill-rule="nonzero"/><path fill="#1eb182" d="m512.1667 410.50656l0 0c0 -9.915039 8.03772 -17.952759 17.952759 -17.952759l0 0c4.7613525 0 9.327698 1.891449 12.694519 5.2582397c3.3667603 3.3667908 5.2582397 7.9331665 5.2582397 12.694519l0 0c0 9.915039 -8.03772 17.952759 -17.952759 17.952759l0 0c-9.915039 0 -17.952759 -8.03772 -17.952759 -17.952759z" fill-rule="evenodd"/><path stroke="#1eb182" stroke-width="1.0" stroke-linejoin="round" stroke-linecap="butt" d="m512.1667 410.50656l0 0c0 -9.915039 8.03772 -17.952759 17.952759 -17.952759l0 0c4.7613525 0 9.327698 1.891449 12.694519 5.2582397c3.3667603 3.3667908 5.2582397 7.9331665 5.2582397 12.694519l0 0c0 9.915039 -8.03772 17.952759 -17.952759 17.952759l0 0c-9.915039 0 -17.952759 -8.03772 -17.952759 -17.952759z" fill-rule="evenodd"/><path fill="#000000" fill-opacity="0.0" d="m512.16797 390.86877l35.905518 0l0 39.275574l-35.905518 0z" fill-rule="evenodd"/><path fill="#ffffff" d="m523.10626 413.94876l1.171875 -6.71875l-1.203125 0l0.1875 -1.03125l1.1875 0l0.125 -0.90625q0.1875 -1.171875 0.90625 -1.828125q0.75 -0.6875 1.90625 -0.671875q0.375 0 0.921875 0.125l-0.15625 1.078125q-0.34375 -0.078125 -0.6875 -0.09375q-0.671875 0 -1.09375 0.421875q-0.421875 0.421875 -0.515625 1.109375l-0.109375 0.765625l1.59375 0l-0.171875 1.03125l-1.609375 0l-1.171875 6.71875l-1.28125 0z" fill-rule="nonzero"/><path fill="#ffffff" d="m530.13135 419.44876l-0.859375 0l1.015625 -5.859375l-1.84375 0.65625l0.140625 -0.84375l2.578125 -0.921875l0.15625 0l-1.1875 6.96875zm4.7441406 0.09375q-0.875 -0.015625 -1.3125 -0.609375q-0.4375 -0.609375 -0.40625 -1.75q0.015625 -0.359375 0.0625 -0.703125l0.171875 -1.15625q0.21875 -1.484375 0.859375 -2.203125q0.65625 -0.734375 1.703125 -0.703125q0.890625 0.015625 1.328125 0.609375q0.4375 0.578125 0.390625 1.703125q0 0.359375 -0.046875 0.703125l-0.171875 1.109375q-0.25 1.578125 -0.890625 2.3125q-0.640625 0.71875 -1.6875 0.6875zm1.90625 -4.265625q0.078125 -0.578125 0.0625 -0.90625q-0.015625 -1.203125 -0.9375 -1.234375q-0.65625 -0.03125 -1.078125 0.484375q-0.40625 0.515625 -0.578125 1.625l-0.203125 1.390625q-0.0625 0.546875 -0.0625 0.890625q0.03125 1.265625 0.9375 1.296875q0.640625 0.03125 1.046875 -0.453125q0.40625 -0.5 0.59375 -1.578125l0.21875 -1.515625z" fill-rule="nonzero"/><path fill="#1eb182" d="m585.93634 410.50656l0 0c0 -9.915039 8.03772 -17.952759 17.952759 -17.952759l0 0c4.7613525 0 9.327759 1.891449 12.694519 5.2582397c3.3668213 3.3667908 5.2582397 7.9331665 5.2582397 12.694519l0 0c0 9.915039 -8.03772 17.952759 -17.952759 17.952759l0 0c-9.915039 0 -17.952759 -8.03772 -17.952759 -17.952759z" fill-rule="evenodd"/><path stroke="#1eb182" stroke-width="1.0" stroke-linejoin="round" stroke-linecap="butt" d="m585.93634 410.50656l0 0c0 -9.915039 8.03772 -17.952759 17.952759 -17.952759l0 0c4.7613525 0 9.327759 1.891449 12.694519 5.2582397c3.3668213 3.3667908 5.2582397 7.9331665 5.2582397 12.694519l0 0c0 9.915039 -8.03772 17.952759 -17.952759 17.952759l0 0c-9.915039 0 -17.952759 -8.03772 -17.952759 -17.952759z" fill-rule="evenodd"/><path fill="#000000" fill-opacity="0.0" d="m585.9377 390.86877l35.905518 0l0 39.275574l-35.905518 0z" fill-rule="evenodd"/><path fill="#ffffff" d="m596.876 413.94876l1.171875 -6.71875l-1.203125 0l0.1875 -1.03125l1.1875 0l0.125 -0.90625q0.1875 -1.171875 0.90625 -1.828125q0.75 -0.6875 1.90625 -0.671875q0.375 0 0.921875 0.125l-0.15625 1.078125q-0.34375 -0.078125 -0.6875 -0.09375q-0.671875 0 -1.09375 0.421875q-0.421875 0.421875 -0.515625 1.109375l-0.109375 0.765625l1.59375 0l-0.171875 1.03125l-1.609375 0l-1.171875 6.71875l-1.28125 0z" fill-rule="nonzero"/><path fill="#ffffff" d="m603.90106 419.44876l-0.859375 0l1.015625 -5.859375l-1.84375 0.65625l0.140625 -0.84375l2.578125 -0.921875l0.15625 0l-1.1875 6.96875zm5.3690796 0l-0.859375 0l1.015625 -5.859375l-1.84375 0.65625l0.140625 -0.84375l2.578125 -0.921875l0.15625 0l-1.1875 6.96875z" fill-rule="nonzero"/><path fill="#1eb182" d="m630.0302 410.50656l0 0c0 -9.915039 8.03772 -17.952759 17.952698 -17.952759l0 0c4.7614136 0 9.327759 1.891449 12.694519 5.2582397c3.3668213 3.3667908 5.2582397 7.9331665 5.2582397 12.694519l0 0c0 9.915039 -8.03772 17.952759 -17.952759 17.952759l0 0c-9.914978 0 -17.952698 -8.03772 -17.952698 -17.952759z" fill-rule="evenodd"/><path stroke="#1eb182" stroke-width="1.0" stroke-linejoin="round" stroke-linecap="butt" d="m630.0302 410.50656l0 0c0 -9.915039 8.03772 -17.952759 17.952698 -17.952759l0 0c4.7614136 0 9.327759 1.891449 12.694519 5.2582397c3.3668213 3.3667908 5.2582397 7.9331665 5.2582397 12.694519l0 0c0 9.915039 -8.03772 17.952759 -17.952759 17.952759l0 0c-9.914978 0 -17.952698 -8.03772 -17.952698 -17.952759z" fill-rule="evenodd"/><path fill="#000000" fill-opacity="0.0" d="m630.0315 390.86877l35.905518 0l0 39.275574l-35.905518 0z" fill-rule="evenodd"/><path fill="#ffffff" d="m640.9698 413.94876l1.171875 -6.71875l-1.203125 0l0.1875 -1.03125l1.1875 0l0.125 -0.90625q0.1875 -1.171875 0.90625 -1.828125q0.75 -0.6875 1.90625 -0.671875q0.375 0 0.921875 0.125l-0.15625 1.078125q-0.34375 -0.078125 -0.6875 -0.09375q-0.671875 0 -1.09375 0.421875q-0.421875 0.421875 -0.515625 1.109375l-0.109375 0.765625l1.59375 0l-0.171875 1.03125l-1.609375 0l-1.171875 6.71875l-1.28125 0z" fill-rule="nonzero"/><path fill="#ffffff" d="m647.9949 419.44876l-0.859375 0l1.015625 -5.859375l-1.84375 0.65625l0.140625 -0.84375l2.578125 -0.921875l0.15625 0l-1.1875 6.96875zm7.0253296 0l-4.421875 0l0.109375 -0.671875l2.5625 -2.484375l0.46875 -0.46875q0.796875 -0.8125 0.890625 -1.484375q0.0625 -0.53125 -0.21875 -0.859375q-0.265625 -0.328125 -0.75 -0.34375q-0.625 -0.03125 -1.046875 0.359375q-0.40625 0.390625 -0.5 1.046875l-0.859375 0.015625q0.0625 -0.640625 0.390625 -1.125q0.34375 -0.5 0.875 -0.765625q0.546875 -0.265625 1.171875 -0.25q0.875 0.015625 1.375 0.515625q0.515625 0.5 0.4375 1.296875q-0.078125 0.921875 -1.046875 1.9375l-0.4375 0.4375l-2.234375 2.125l3.34375 0l-0.109375 0.71875z" fill-rule="nonzero"/><path fill="#1eb182" d="m714.87665 410.50656l0 0c0 -9.915039 8.03772 -17.952759 17.952759 -17.952759l0 0c4.7613525 0 9.327698 1.891449 12.694519 5.2582397c3.3667603 3.3667908 5.2582397 7.9331665 5.2582397 12.694519l0 0c0 9.915039 -8.03772 17.952759 -17.952759 17.952759l0 0c-9.915039 0 -17.952759 -8.03772 -17.952759 -17.952759z" fill-rule="evenodd"/><path stroke="#1eb182" stroke-width="1.0" stroke-linejoin="round" stroke-linecap="butt" d="m714.87665 410.50656l0 0c0 -9.915039 8.03772 -17.952759 17.952759 -17.952759l0 0c4.7613525 0 9.327698 1.891449 12.694519 5.2582397c3.3667603 3.3667908 5.2582397 7.9331665 5.2582397 12.694519l0 0c0 9.915039 -8.03772 17.952759 -17.952759 17.952759l0 0c-9.915039 0 -17.952759 -8.03772 -17.952759 -17.952759z" fill-rule="evenodd"/><path fill="#000000" fill-opacity="0.0" d="m714.8779 390.86877l35.905518 0l0 39.275574l-35.905518 0z" fill-rule="evenodd"/><path fill="#ffffff" d="m725.8163 413.94876l1.171875 -6.71875l-1.203125 0l0.1875 -1.03125l1.1875 0l0.125 -0.90625q0.1875 -1.171875 0.90625 -1.828125q0.75 -0.6875 1.90625 -0.671875q0.375 0 0.921875 0.125l-0.15625 1.078125q-0.34375 -0.078125 -0.6875 -0.09375q-0.671875 0 -1.09375 0.421875q-0.421875 0.421875 -0.515625 1.109375l-0.109375 0.765625l1.59375 0l-0.171875 1.03125l-1.609375 0l-1.171875 6.71875l-1.28125 0z" fill-rule="nonzero"/><path fill="#ffffff" d="m732.8414 419.44876l-0.859375 0l1.015625 -5.859375l-1.84375 0.65625l0.140625 -0.84375l2.578125 -0.921875l0.15625 0l-1.1875 6.96875zm4.4784546 -3.90625l0.578125 0.015625q0.625 0 1.046875 -0.328125q0.4375 -0.34375 0.5 -0.90625q0.0625 -0.546875 -0.203125 -0.859375q-0.265625 -0.328125 -0.78125 -0.34375q-0.546875 0 -0.921875 0.328125q-0.375 0.328125 -0.46875 0.875l-0.84375 0q0.078125 -0.859375 0.71875 -1.390625q0.65625 -0.53125 1.5625 -0.53125q0.875 0.015625 1.375 0.546875q0.5 0.53125 0.421875 1.390625q-0.03125 0.5 -0.375 0.90625q-0.328125 0.390625 -0.921875 0.671875q0.46875 0.1875 0.703125 0.609375q0.234375 0.40625 0.203125 0.953125q-0.078125 0.9375 -0.75 1.515625q-0.671875 0.5625 -1.625 0.546875q-0.890625 -0.015625 -1.421875 -0.546875q-0.53125 -0.53125 -0.5 -1.375l0.875 0q-0.03125 0.53125 0.25 0.859375q0.28125 0.328125 0.828125 0.34375q0.609375 0.015625 1.015625 -0.34375q0.40625 -0.375 0.46875 -0.984375q0.046875 -0.5625 -0.265625 -0.875q-0.3125 -0.328125 -0.921875 -0.34375l-0.65625 -0.015625l0.109375 -0.71875z" fill-rule="nonzero"/><path fill="#1eb182" d="m758.97046 410.50656l0 0c0 -9.915039 8.03772 -17.952759 17.952759 -17.952759l0 0c4.7613525 0 9.327759 1.891449 12.694519 5.2582397c3.3668213 3.3667908 5.2582397 7.9331665 5.2582397 12.694519l0 0c0 9.915039 -8.03772 17.952759 -17.952759 17.952759l0 0c-9.915039 0 -17.952759 -8.03772 -17.952759 -17.952759z" fill-rule="evenodd"/><path stroke="#1eb182" stroke-width="1.0" stroke-linejoin="round" stroke-linecap="butt" d="m758.97046 410.50656l0 0c0 -9.915039 8.03772 -17.952759 17.952759 -17.952759l0 0c4.7613525 0 9.327759 1.891449 12.694519 5.2582397c3.3668213 3.3667908 5.2582397 7.9331665 5.2582397 12.694519l0 0c0 9.915039 -8.03772 17.952759 -17.952759 17.952759l0 0c-9.915039 0 -17.952759 -8.03772 -17.952759 -17.952759z" fill-rule="evenodd"/><path fill="#000000" fill-opacity="0.0" d="m758.9718 390.86877l35.905518 0l0 39.275574l-35.905518 0z" fill-rule="evenodd"/><path fill="#ffffff" d="m769.9101 413.94876l1.171875 -6.71875l-1.203125 0l0.1875 -1.03125l1.1875 0l0.125 -0.90625q0.1875 -1.171875 0.90625 -1.828125q0.75 -0.6875 1.90625 -0.671875q0.375 0 0.921875 0.125l-0.15625 1.078125q-0.34375 -0.078125 -0.6875 -0.09375q-0.671875 0 -1.09375 0.421875q-0.421875 0.421875 -0.515625 1.109375l-0.109375 0.765625l1.59375 0l-0.171875 1.03125l-1.609375 0l-1.171875 6.71875l-1.28125 0z" fill-rule="nonzero"/><path fill="#ffffff" d="m776.9352 419.44876l-0.859375 0l1.015625 -5.859375l-1.84375 0.65625l0.140625 -0.84375l2.578125 -0.921875l0.15625 0l-1.1875 6.96875zm6.5878296 -2.328125l0.921875 0l-0.125 0.71875l-0.921875 0l-0.28125 1.609375l-0.875 0l0.28125 -1.609375l-3.0625 0l0.09375 -0.5625l3.8125 -4.765625l0.953125 0l-0.796875 4.609375zm-2.9375 0l2.0625 0l0.625 -3.421875l-0.140625 0.203125l-2.546875 3.21875z" fill-rule="nonzero"/><path fill="#1eb182" d="m803.06433 410.50656l0 0c0 -9.915039 8.03772 -17.952759 17.952759 -17.952759l0 0c4.7613525 0 9.327698 1.891449 12.694458 5.2582397c3.3668213 3.3667908 5.2582397 7.9331665 5.2582397 12.694519l0 0c0 9.915039 -8.03772 17.952759 -17.952698 17.952759l0 0c-9.915039 0 -17.952759 -8.03772 -17.952759 -17.952759z" fill-rule="evenodd"/><path stroke="#1eb182" stroke-width="1.0" stroke-linejoin="round" stroke-linecap="butt" d="m803.06433 410.50656l0 0c0 -9.915039 8.03772 -17.952759 17.952759 -17.952759l0 0c4.7613525 0 9.327698 1.891449 12.694458 5.2582397c3.3668213 3.3667908 5.2582397 7.9331665 5.2582397 12.694519l0 0c0 9.915039 -8.03772 17.952759 -17.952698 17.952759l0 0c-9.915039 0 -17.952759 -8.03772 -17.952759 -17.952759z" fill-rule="evenodd"/><path fill="#000000" fill-opacity="0.0" d="m803.0656 390.86877l35.905518 0l0 39.275574l-35.905518 0z" fill-rule="evenodd"/><path fill="#ffffff" d="m814.0039 413.94876l1.171875 -6.71875l-1.203125 0l0.1875 -1.03125l1.1875 0l0.125 -0.90625q0.1875 -1.171875 0.90625 -1.828125q0.75 -0.6875 1.90625 -0.671875q0.375 0 0.921875 0.125l-0.15625 1.078125q-0.34375 -0.078125 -0.6875 -0.09375q-0.671875 0 -1.09375 0.421875q-0.421875 0.421875 -0.515625 1.109375l-0.109375 0.765625l1.59375 0l-0.171875 1.03125l-1.609375 0l-1.171875 6.71875l-1.28125 0z" fill-rule="nonzero"/><path fill="#ffffff" d="m821.029 419.44876l-0.859375 0l1.015625 -5.859375l-1.84375 0.65625l0.140625 -0.84375l2.578125 -0.921875l0.15625 0l-1.1875 6.96875zm3.5410156 -3.5l0.875 -3.4375l3.46875 0l-0.125 0.8125l-2.71875 0l-0.546875 1.890625q0.53125 -0.3125 1.140625 -0.296875q0.859375 0.015625 1.328125 0.65625q0.46875 0.640625 0.375 1.625q-0.09375 1.078125 -0.765625 1.734375q-0.65625 0.640625 -1.65625 0.609375q-0.828125 0 -1.34375 -0.515625q-0.5 -0.53125 -0.53125 -1.40625l0.796875 0q0.046875 0.5625 0.328125 0.890625q0.296875 0.3125 0.78125 0.3125q0.625 0.03125 1.03125 -0.421875q0.421875 -0.453125 0.5 -1.1875q0.0625 -0.65625 -0.234375 -1.0625q-0.28125 -0.421875 -0.84375 -0.4375q-0.34375 -0.015625 -0.625 0.109375q-0.265625 0.109375 -0.53125 0.328125l-0.703125 -0.203125z" fill-rule="nonzero"/><path fill="#000000" fill-opacity="0.0" d="m82.128685 433.5748l211.08661 0l0 26.897644l-211.08661 0z" fill-rule="evenodd"/><path fill="#3d3c3c" d="m97.67556 447.9486l-3.75 0l0 3.875l-1.953125 0l0 -9.46875l6.171875 0l0 1.578125l-4.21875 0l0 2.4375l3.75 0l0 1.578125zm4.5869904 4.0q-1.546875 0 -2.53125 -0.9375q-0.96875 -0.953125 -0.96875 -2.53125l0 -0.1875q0 -1.0625 0.40625 -1.890625q0.40625 -0.84375 1.15625 -1.296875q0.765625 -0.453125 1.71875 -0.453125q1.453125 0 2.28125 0.921875q0.828125 0.90625 0.828125 2.578125l0 0.765625l-4.484375 0q0.09375 0.6875 0.546875 1.109375q0.46875 0.40625 1.171875 0.40625q1.078125 0 1.6875 -0.78125l0.921875 1.03125q-0.421875 0.59375 -1.140625 0.9375q-0.71875 0.328125 -1.59375 0.328125zm-0.21875 -5.78125q-0.5625 0 -0.90625 0.390625q-0.34375 0.375 -0.453125 1.078125l2.625 0l0 -0.15625q-0.015625 -0.625 -0.34375 -0.96875q-0.328125 -0.34375 -0.921875 -0.34375zm8.251099 5.65625q-0.125 -0.25 -0.1875 -0.625q-0.671875 0.75 -1.765625 0.75q-1.046875 0 -1.734375 -0.59375q-0.671875 -0.59375 -0.671875 -1.515625q0 -1.109375 0.828125 -1.703125q0.84375 -0.609375 2.40625 -0.609375l0.859375 0l0 -0.40625q0 -0.484375 -0.25 -0.78125q-0.25 -0.296875 -0.78125 -0.296875q-0.484375 0 -0.75 0.234375q-0.265625 0.21875 -0.265625 0.625l-1.890625 0q0 -0.609375 0.375 -1.125q0.390625 -0.53125 1.078125 -0.828125q0.6875 -0.296875 1.546875 -0.296875q1.296875 0 2.0625 0.65625q0.765625 0.65625 0.765625 1.84375l0 3.046875q0.015625 1.0 0.28125 1.515625l0 0.109375l-1.90625 0zm-1.546875 -1.3125q0.40625 0 0.75 -0.171875q0.359375 -0.1875 0.53125 -0.5l0 -1.21875l-0.703125 0q-1.40625 0 -1.5 0.984375l0 0.109375q0 0.34375 0.234375 0.578125q0.25 0.21875 0.6875 0.21875zm6.864395 -7.453125l0 1.71875l1.203125 0l0 1.390625l-1.203125 0l0 3.515625q0 0.390625 0.15625 0.5625q0.15625 0.15625 0.578125 0.15625q0.3125 0 0.546875 -0.046875l0 1.4375q-0.546875 0.15625 -1.140625 0.15625q-1.984375 0 -2.015625 -2.0l0 -3.78125l-1.03125 0l0 -1.390625l1.03125 0l0 -1.71875l1.875 0zm6.4721985 8.046875q-0.6875 0.84375 -1.921875 0.84375q-1.140625 0 -1.734375 -0.640625q-0.59375 -0.65625 -0.609375 -1.90625l0 -4.625l1.890625 0l0 4.546875q0 1.109375 1.0 1.109375q0.953125 0 1.3125 -0.671875l0 -4.984375l1.890625 0l0 7.046875l-1.78125 0l-0.046875 -0.71875zm7.1924057 -4.5625q-0.375 -0.046875 -0.671875 -0.046875q-1.0625076 0 -1.3906326 0.71875l0 4.609375l-1.890625 0l0 -7.046875l1.78125 0l0.046875 0.84375q0.578125 -0.96875 1.5781326 -0.96875q0.3125 0 0.578125 0.078125l-0.03125 1.8125zm4.034561 5.40625q-1.546875 0 -2.53125 -0.9375q-0.96875 -0.953125 -0.96875 -2.53125l0 -0.1875q0 -1.0625 0.40625 -1.890625q0.40625 -0.84375 1.15625 -1.296875q0.765625 -0.453125 1.71875 -0.453125q1.453125 0 2.28125 0.921875q0.828125 0.90625 0.828125 2.578125l0 0.765625l-4.484375 0q0.09375 0.6875 0.546875 1.109375q0.46875 0.40625 1.171875 0.40625q1.078125 0 1.6875 -0.78125l0.921875 1.03125q-0.421875 0.59375 -1.140625 0.9375q-0.71875 0.328125 -1.59375 0.328125zm-0.21875 -5.78125q-0.5625 0 -0.90625 0.390625q-0.34375 0.375 -0.453125 1.078125l2.625 0l0 -0.15625q-0.015625 -0.625 -0.34375 -0.96875q-0.328125 -0.34375 -0.921875 -0.34375zm7.9854736 3.703125q0 -0.34375 -0.34375 -0.53125q-0.328125 -0.203125 -1.09375 -0.359375q-2.515625 -0.53125 -2.515625 -2.140625q0 -0.9375 0.78125 -1.5625q0.78125 -0.625 2.03125 -0.625q1.34375 0 2.140625 0.640625q0.8125 0.625 0.8125 1.625l-1.875 0q0 -0.390625 -0.265625 -0.65625q-0.265625 -0.265625 -0.8125 -0.265625q-0.46875 0 -0.734375 0.21875q-0.265625 0.203125 -0.265625 0.546875q0 0.3125 0.296875 0.5q0.296875 0.1875 1.0 0.328125q0.703125 0.140625 1.1875 0.3125q1.484375 0.546875 1.484375 1.890625q0 0.96875 -0.828125 1.5625q-0.8125 0.59375 -2.125 0.59375q-0.890625 0 -1.578125 -0.3125q-0.6875 -0.3125 -1.078125 -0.859375q-0.390625 -0.546875 -0.390625 -1.1875l1.78125 0q0.03125 0.5 0.375 0.765625q0.34375 0.265625 0.921875 0.265625q0.546875 0 0.8125 -0.203125q0.28125 -0.203125 0.28125 -0.546875z" fill-rule="nonzero"/><path fill="#3d3c3c" d="m147.50012 451.8236l1.0625 -6.109375l-1.09375 0l0.171875 -0.9375l1.078125 0l0.109375 -0.828125q0.171875 -1.0625 0.828125 -1.65625q0.6875 -0.625 1.734375 -0.609375q0.34375 0 0.84375 0.109375l-0.140625 0.984375q-0.3125 -0.078125 -0.625 -0.078125q-0.625 0 -1.0 0.375q-0.375 0.375 -0.46875 1.015625l-0.109375 0.6875l1.46875 0l-0.171875 0.9375l-1.453125 0l-1.0625 6.109375l-1.171875 0z" fill-rule="nonzero"/><path fill="#000000" fill-opacity="0.0" d="m294.16983 140.916c-72.23889 52.3468 -141.763 147.76375 -141.763 246.52592" fill-rule="evenodd"/><path stroke="#1eb182" stroke-width="2.0" stroke-linejoin="round" stroke-linecap="butt" d="m294.16983 140.91599c-36.119415 26.173416 -71.560196 63.114365 -97.9711 105.85721c-13.205429 21.37143 -24.153412 44.19333 -31.800034 67.84503c-3.8233032 11.825836 -6.821274 23.85913 -8.863419 36.022278c-1.0210724 6.0815735 -1.8031769 12.195618 -2.3300323 18.332428c-0.13169861 1.5342102 -0.24746704 3.0697937 -0.34701538 4.60672c-0.024887085 0.3842163 -0.04875183 0.76852417 -0.071624756 1.1528931l-0.04055786 0.71417236" fill-rule="evenodd"/><path fill="#1eb182" stroke="#1eb182" stroke-width="2.0" stroke-linecap="butt" d="m149.4439 375.35333l3.045578 9.165955l3.5587158 -8.979187z" fill-rule="evenodd"/><path fill="#000000" fill-opacity="0.0" d="m293.21457 127.35435c-93.63844 55.225105 -183.75787 155.88852 -183.75787 260.08115" fill-rule="evenodd"/><path stroke="#1eb182" stroke-width="2.0" stroke-linejoin="round" stroke-linecap="butt" d="m293.21457 127.354355c-46.81923 27.612534 -92.7587 66.584656 -126.99335 111.677734c-17.117325 22.546555 -31.308472 46.623306 -41.22027 71.575485c-4.9558945 12.476074 -8.841965 25.17102 -11.489052 38.00296c-1.3235474 6.4159546 -2.337349 12.866211 -3.0202713 19.340424c-0.17072296 1.6185608 -0.32077026 3.2386475 -0.44981384 4.860016c-0.06451416 0.81069946 -0.1237793 1.6217346 -0.17775726 2.433075l-0.012504578 0.1979065" fill-rule="evenodd"/><path fill="#1eb182" stroke="#1eb182" stroke-width="2.0" stroke-linecap="butt" d="m106.54987 375.33328l3.0030289 9.179993l3.600319 -8.962585z" fill-rule="evenodd"/><path fill="#000000" fill-opacity="0.0" d="m356.92523 158.86876c18.295868 48.533707 35.904175 137.00017 35.904175 228.56819" fill-rule="evenodd"/><path stroke="#1eb182" stroke-width="2.0" stroke-linejoin="round" stroke-linecap="butt" d="m356.92523 158.86876c9.147919 24.266846 18.123993 58.516876 24.81305 98.146194c3.344513 19.814697 6.117279 40.974182 8.053955 62.902985c0.96829224 10.9644165 1.7276001 22.121155 2.2448425 33.398285c0.25857544 5.6385803 0.45669556 11.307251 0.5900879 16.99707c0.03338623 1.4223938 0.062683105 2.8461914 0.087890625 4.271118l0.0138549805 0.8529358" fill-rule="evenodd"/><path fill="#1eb182" stroke="#1eb182" stroke-width="2.0" stroke-linecap="butt" d="m389.42557 375.465l3.3793335 9.048218l3.227356 -9.103516z" fill-rule="evenodd"/><path fill="#000000" fill-opacity="0.0" d="m376.16263 158.86877c32.34671 48.533707 63.477783 137.00015 63.477783 228.56818" fill-rule="evenodd"/><path stroke="#1eb182" stroke-width="2.0" stroke-linejoin="round" stroke-linecap="butt" d="m376.16266 158.86877c16.17334 24.266846 32.042816 58.51689 43.868866 98.14621c5.9130554 19.814667 10.815308 40.974182 14.239258 62.902985c1.7119446 10.9644165 3.0543823 22.121155 3.968811 33.398315c0.45718384 5.63855 0.80740356 11.307251 1.0433044 16.99701c0.05895996 1.4224243 0.110809326 2.8461914 0.15539551 4.2711487l0.024505615 0.8538513" fill-rule="evenodd"/><path fill="#1eb182" stroke="#1eb182" stroke-width="2.0" stroke-linecap="butt" d="m436.1597 375.48718l3.437439 9.026306l3.1687622 -9.124115z" fill-rule="evenodd"/><path fill="#000000" fill-opacity="0.0" d="m404.74948 134.58255c101.26828 53.6893 198.7308 151.55331 198.7308 252.84839" fill-rule="evenodd"/><path stroke="#1eb182" stroke-width="2.0" stroke-linejoin="round" stroke-linecap="butt" d="m404.7495 134.58255c50.634094 26.84465 100.31683 64.73299 137.341 108.57204c18.512085 21.91951 33.85956 45.326736 44.57892 69.58501c5.359741 12.12912 9.5625 24.471008 12.425232 36.946106c1.4313965 6.2375183 2.527832 12.508362 3.2664185 18.802582c0.18463135 1.5735168 0.3468628 3.148529 0.4864502 4.7248535c0.034851074 0.3940735 0.06829834 0.788208 0.10040283 1.1824646l0.08099365 1.0438232" fill-rule="evenodd"/><path fill="#1eb182" stroke="#1eb182" stroke-width="2.0" stroke-linecap="butt" d="m599.72784 375.5637l3.642517 8.945526l2.9597168 -9.194031z" fill-rule="evenodd"/><path fill="#000000" fill-opacity="0.0" d="m664.09076 161.26253c78.159485 48.02411 153.38165 135.56169 153.38165 226.16829" fill-rule="evenodd"/><path stroke="#1eb182" stroke-width="2.0" stroke-linejoin="round" stroke-linecap="butt" d="m664.0908 161.26251c39.079712 24.01207 77.42511 57.902496 106.00055 97.11572c14.287842 19.606628 26.133057 40.543945 34.40631 62.242523c4.13678 10.849274 7.380371 21.888885 9.589905 33.047638c1.1047363 5.5793457 1.9509888 11.188507 2.520996 16.818573c0.14245605 1.4074707 0.26776123 2.8163147 0.37542725 4.226288l0.05316162 0.72546387" fill-rule="evenodd"/><path fill="#1eb182" stroke="#1eb182" stroke-width="2.0" stroke-linecap="butt" d="m813.7359 375.55853l3.6304932 8.950409l2.972107 -9.190063z" fill-rule="evenodd"/><path fill="#000000" fill-opacity="0.0" d="m653.13007 161.26247c59.464417 48.024124 116.69409 135.56169 116.69409 226.16832" fill-rule="evenodd"/><path stroke="#1eb182" stroke-width="2.0" stroke-linejoin="round" stroke-linecap="butt" d="m653.13007 161.26247c29.732239 24.012054 58.9057 57.90248 80.64618 97.11571c10.870239 19.606628 19.882202 40.543945 26.176697 62.242554c3.1470947 10.849274 5.61499 21.888855 7.2960205 33.047607c0.8404541 5.579376 1.484314 11.188538 1.9179688 16.818573c0.10839844 1.4075012 0.20373535 2.8163147 0.28564453 4.2263184l0.040222168 0.72213745" fill-rule="evenodd"/><path fill="#1eb182" stroke="#1eb182" stroke-width="2.0" stroke-linecap="butt" d="m766.1906 375.52655l3.5527954 8.981537l3.0516357 -9.16394z" fill-rule="evenodd"/><path fill="#000000" fill-opacity="0.0" d="m643.6561 161.26247c43.84491 48.024124 86.04205 135.56169 86.04205 226.16832" fill-rule="evenodd"/><path stroke="#1eb182" stroke-width="2.0" stroke-linejoin="round" stroke-linecap="butt" d="m643.6561 161.26247c21.922424 24.012054 43.432922 57.90248 59.46289 97.11571c8.014893 19.606628 14.659668 40.543945 19.300781 62.242554c2.3204956 10.849274 4.1400757 21.888855 5.3795776 33.047607c0.619751 5.579376 1.0944214 11.188538 1.4141846 16.818573c0.07989502 1.4075012 0.15020752 2.8163147 0.21063232 4.2263184l0.028320312 0.72006226" fill-rule="evenodd"/><path fill="#1eb182" stroke="#1eb182" stroke-width="2.0" stroke-linecap="butt" d="m726.1497 375.50092l3.4885864 9.006653l3.1170044 -9.141907z" fill-rule="evenodd"/><path fill="#000000" fill-opacity="0.0" d="m556.98474 134.59315c-38.334717 53.6893 -75.22882 151.55333 -75.22882 252.84837" fill-rule="evenodd"/><path stroke="#1eb182" stroke-width="2.0" stroke-linejoin="round" stroke-linecap="butt" d="m556.98474 134.59315c-19.167358 26.84465 -37.97455 64.73299 -51.98996 108.57204c-7.00766 21.919525 -12.817383 45.32672 -16.875183 69.58496c-2.0289307 12.12915 -3.6198425 24.471039 -4.7035522 36.946136c-0.5418396 6.2375183 -0.95684814 12.508392 -1.2364502 18.802551c-0.069885254 1.5735474 -0.13131714 3.1485596 -0.18414307 4.724884l-0.06829834 2.2190247" fill-rule="evenodd"/><path fill="#1eb182" stroke="#1eb182" stroke-width="2.0" stroke-linecap="butt" d="m478.62405 375.3956l3.173584 9.122406l3.4326782 -9.028107z" fill-rule="evenodd"/></g></svg>